<?xml version="1.0" encoding="utf-8"?>
<!-- Generator: Adobe Illustrator 23.0.6, SVG Export Plug-In . SVG Version: 6.00 Build 0)  -->
<svg version="1.1" id="Layer_1" xmlns="http://www.w3.org/2000/svg" xmlns:xlink="http://www.w3.org/1999/xlink" x="0px" y="0px"
	 viewBox="0 0 272 340" style="enable-background:new 0 0 272 340;" xml:space="preserve">
<g>
	<path d="M62.9,186c-1.3,2.3-2,4-3,6c-2.3,5-4.5,10-7,14.8c-2.8,5.3-5.8,10.5-8.8,15.5c-3,5-6,10-10.3,13.8
		c-5.3,4.3-8.5,3.8-13.8,0.8c-2-1.3-4.3-2.5-6.3-4c-1.3-0.8-2.3-2-3.3-3c-0.8-1-0.5-1.5,0.8-1.5c2,0,3.8,0,5.8,0.5s3.5,0.3,5-1.3
		c3.5-3,5.5-6.8,7.8-10.5c3-5.5,6-10.8,9-16.3c1.3-2.5,2.3-5.5,3.5-8.3c2-4.8,4.3-9.8,6.3-14.5c0.5-1.3,0.3-2-1-2.5
		c-3.5-1.5-7-2.8-10.3-4.3c-0.3,0-0.5-0.3-1-0.3c-2.3-0.8-4.8-2-7-2.5c-5-1.3-10-2.5-15-3.5c-1.5-0.3-3.3-0.3-5-0.5
		c-0.3,0-0.8-0.3-1.5-0.5c1-0.8,1.5-1.8,2.3-2.3c3.5-2,6.8-4,10.3-6c3-1.8,6.3-0.8,9.3-1c3.5-0.3,7-0.3,10.5-1c3.5-0.8,7-1.8,10.3-3
		c2.5-0.8,4.8-1.8,7-2.8c1.8-0.5,2.8-2,3.3-3.5c1-3.5,2-7,3-10.5c0.8-2,1.5-4.3,2.3-6.3c0-0.3,0.3-0.5,0.3-0.8c1.5-5,3-10,4.8-14.8
		c0.8-2.5,1.3-5,2.5-7.3c0.8-1.8,0.8-3.5,1.8-5.3c1.3-2.8,1.3-5.8,2.3-8.5c1-3.8,2.5-7.3,3.5-10.8c1.3-4.3,2.3-8.5,3.3-12.5
		c0.5-2,1.5-3.8,2-5.5c1-3.3,1.8-6.5,2.8-9.8c1.5-5,3.3-10.3,4.5-15.3c1-4,2-8.3,2.8-12.3c0.3-1.3,1.3-2.5,0.3-3.8
		c0-0.3,0.5-1,1-1.3c3.8-1,7.3-2,11.3-1.5c1.3,0.3,2.5,0.5,3.8,1c2.3,0.8,3.3,2.5,2.8,4.8c-1,3.8-1.8,7.5-2.5,11.3
		c-0.8,3.5-1.8,7.3-2.8,10.8c-0.8,3.3-1.5,6.5-2.3,10c-0.8,3.5-1.8,7-2.5,10.8c-0.8,4-1.8,8.3-2.5,12.3c-0.8,5-1.5,10-2,15
		c-0.8,5-1.3,10.3-1.8,15.3c-0.3,4-0.3,7.8-0.5,11.8c0,2.3-0.3,4.5-0.5,6.8c0.3,0,0.3,0.3,0.5,0.3c1.3-0.8,2.8-1.5,4-2.5
		c3.8-2.8,7.8-5.8,11.3-8.8c4-3.5,8-7.3,12-11c4-3.8,7.5-7.8,11.3-11.8c3.3-3.5,6.5-6.8,9.8-10.3c1.8-2,3.5-4.3,5.3-6.3
		c0.3-0.3,0.3-1,0.3-1.5c-0.3-2.3-0.3-2.8,2-3.3c3.5-0.8,7-1.5,10.5-1.8c2,0,4.5,0.8,6.3,1.8c2.3,1,3.5,3.8,1,6
		c-1,1-1.5,2.5-2.3,3.8c-1.3,3-2.5,6-3.8,9.3c-0.8,1.8-1.5,3.8-2,5.8c-1.5,3.8-2.8,7.8-4.3,11.5c-2.3,5.8-4.5,11.8-6.5,17.5
		c-1,2.8-1.8,5.3-2.8,8c0,0.3,0,0.5,0,1.3c1.8-2.5,3.3-4.5,4.8-6.5c2-2.8,4.3-5.5,6.3-8.3c4.5-5.5,8.8-10.8,13.3-16.3
		c1-1,2-2,3.3-2.8c2.5-1.8,4.8-4,7.5-5c4.3-1.5,8.8-2,13.3-0.5c2.8,0.8,4.8,3,4.5,6c-0.3,3-0.8,5.8-1.3,8.5c-1,4.5-2,9-3.3,13.3
		c-0.5,1.8-1.3,3.3-1.5,5c-1,3.8-1.5,7.8-2.5,11.5c-0.3,0.8-0.5,1.8-0.5,2.5c-1.8,6.5-2.8,13.3-4.3,19.8c-0.5,2.8-1.3,5.8-1.8,8.5
		c0.3,0,0.3,0.3,0.5,0.3c0.8-1.3,1.5-2.3,2-3.5c1.5-2.8,2.8-5.3,4.3-8c2-4,4-8.3,6.3-12.3c2-3.3,4.3-6.5,6.5-9.8
		c1.3-1.8,2.5-3.8,3.8-5.5c3-3.8,6.3-7.5,9.5-11.3c1.3-1.5,2.5-3.3,3.8-5c0.3-0.5,0.3-1.3,0.5-2c0.3-0.8,0.8-1.3,1.3-1.8l0.3-0.3
		c0.5-1.8,1.3-3.3,1.8-5c0-0.5-0.3-1-0.5-1.3c-0.3-0.3-0.8-0.5-1.3-0.5c0.3-0.3,0.3-0.5,0.5-0.8c0.5,0,0.8-0.3,1.3-0.3
		c6,0,12,0,18,0.3c1.5,0,3.3,0.8,4.8,1.5c1.8,0.8,1.5,2.8,1.8,4.3c0.8,2.8,1.5,5.5,2,8.3c0.3,1.8,0.8,3.3,0.5,5c-0.3,3,0,6,0.5,8.8
		c0.3,1,0.5,2.5,0,3.5c-0.3,0.8-1,1.8-2,2c-1.5,0.8-2.5,1.5-2.8,3.3c-0.3,4-0.8,8-1.3,12c-1,7-0.8,14-1,21.1c-0.3,6,0,12,0.3,18
		c0.3,3.5,0.3,7.3,2.3,10.5c0.8,1.3,1.5,2.3,2.3,3.3c1,1.5,1.8,3,2.8,4.5c1.3,2.3,1,4.8,0,7c-1,1.8-4,2.5-6.5,2
		c-3.8-0.8-7-2.5-10-4.5c-0.8-0.5-1.5-1.5-2-2.5c-1-2-1.8-4.3-2.5-6.5c-1-2.8-1.8-5.8-2.5-8.5c-0.5-2.3-0.5-4.8-1-7
		c0-1-0.3-1.8-0.3-2.8c-0.3,0-0.5,0-0.5,0c-0.3,1-0.5,2-0.5,3c-0.3,3-0.5,6.3-0.8,9.3c-0.5,4.8-0.8,9.5-1.3,14.3
		c-0.3,4.3-0.5,8.8-0.8,13c-0.3,3.8-0.5,7.5-1,11.3c-0.3,2.8-1.3,5.3-3,7.3c-2,2-4.3,3.3-7,2.8c-3-0.3-6-1.3-8.8-2.8
		c-2.3-1.5-3.8-3.3-4.8-5.8c-1-2.8-2.3-5.5-3.5-8.3c-0.3-0.8,0-1.5-0.3-2.3c-0.5-4.3-1-8.5-1-12.8c0-3,0.3-6,0.5-9
		c0-2.5-0.3-4.8,0-7.3c0-1.5,0.3-3,0.5-4.5c0.3-1.3,0.3-2.5,0.3-3.8c0.3-2,0.8-4.3,1-6.3c0-0.3,0.3-0.5,0.3-0.8
		c-0.3-1.3-0.5-2.5-0.8-4.3c-1,2-2,3.8-2.8,5.5c-1.8,3.8-3.5,7.8-5,11.5c-1.3,3.3-2,6.5-3.3,9.5c-1.5,3.5-3,7.3-4.5,10.8
		c-1.3,2.8-3,3.5-6.8,3.3c-2.8-0.3-5.3-1.5-7.5-3c-0.3,0-0.3-0.3-0.5-0.3c-2.5-1-3.3-3-3.8-5.5c-1-4.3-0.8-8.8-0.3-13
		c0.5-5,1.3-10,2-15s1.8-10,2.5-15c0.5-2.8,0.8-5.5,1.5-8c1.3-3.8,1-8,2.3-11.8c0.3-0.5,0.5-1,0.8-1.5s0.8-1,0.5-1.5
		c-0.8-3,0.8-5.5,1.3-8.3c0.5-3,1.5-6,2.3-9c0.8-3.5,1.8-6.8,2.5-10.3c0-0.3,0-0.5,0-0.8c-0.5,0.3-0.8,0.5-1,0.8
		c-3.3,4-6.8,8-9.5,12.3c-3.8,5.3-7.3,10.8-10.5,16.3c-1.8,3-3.3,6.5-4.5,9.8c-3.5,9-6.8,18-10,27.1c-2,5.5-3.8,11.3-5.5,17
		c-0.8,2-1,4.3-1.3,6.5c-0.5,2.8-1.3,5.5-1.8,8.3c-0.8,4.3-1.3,8.8-1.8,13c-0.5,3.5-1,6.8-1.5,10.3c-0.3,2.8-0.3,5.8-0.3,8.5
		c-0.5,8.8-0.8,17.5-1.5,26.6c-0.3,4.5,0.8,8.8,1.3,13c1,6.5,2,12.8,2.8,19.3c0.5,4.3,1.3,8.5,1.5,13c0.3,3.8-1.3,6.8-4.3,9.3
		c-1,0.8-2.5,1.5-4,1.5c-3.5,0-7,0-10.3-0.8s-5.5-3.3-7.5-5.8c-3.8-4.5-6-9.8-8.3-15c-1.3-2.8-2-5.5-3-8.3c-1.3-3.3-2.3-6.5-3.5-9.8
		c-0.8-2.5-1.5-4.8-2.3-7.3c-1-4-2.3-8-3-12c-0.8-3.5-1.5-7.3-2.3-10.8c-0.8-3.3-1.5-6.8-2-10c-0.8-5-1.8-10-2.3-15
		c-0.3-1.8,0-3.3-0.3-5c0-1.3-0.5-2.3-0.8-3.5c-0.5-4.8-0.8-9.5-1.3-14.3c0-1.5,0.3-3.3-0.3-4.8c-0.3-1-1.3-2-2.3-2.8
		c-3.5-4-6.8-7.8-10.3-11.8c-1-1-2-2-3-3c-1.3-1.3-2.3-2.5-3.5-3.8C64.1,187.3,63.6,186.8,62.9,186z M116,224.9h0.3
		c0.3-1,0.5-2,0.8-2.8c0.3-3.5,0.5-6.8,1-10.3c0.3-2.3,0.5-4.5,1-6.8c0.3-1,0.3-2,0.3-3c0.5-2.3,1-4.8,1.3-7
		c0.3-2.3,0.3-4.5,0.8-6.8c0.5-3,1-6,1.5-9c0.3-2.3,0.8-4.3,1-6.5c0.3-2,0.8-4,1-6c0.5-2.8,0.8-5.5,1.3-8.3c0-0.5,0.5-1,0.8-1.8
		c0.8-3,1-6.3,1.8-9.3c0.5-2.3,1.5-4.5,2.3-6.8c0.8-2.8,1.3-5.8,2.3-8.8c1-3,2.3-5.8,3.3-8.8c0.8-2.5,1.5-5,2.3-7.5
		c0.3-0.8,0.5-1.3,0.8-2.5c-0.5,0.5-1,0.5-1.3,0.8c-1.8,1.5-3.3,3-5,4.3c-4.3,3.3-8.3,6.5-12.5,9.8c-3.3,2.3-6.5,4.3-10,6.3
		c-3.8,2.3-7.5,4-11.3,6.3c-0.5,0.3-1.3,1-1.3,1.8c-0.3,4.3-0.5,8.5-0.5,12.8c0,4.8,0,9.3,0.3,14c0,4.8,0.3,9.8,0.5,14.5
		c0,3.5,0.3,6.8,0.3,10.3c0,3,0,6,2.8,8.3c0,0,0.3,0.3,0.3,0.5c2,2.5,4,5,5.8,7.3c2.5,3.3,5.5,6,6.8,10.3
		C114.5,222.1,115.2,223.4,116,224.9z M102.2,236.2c-0.3,0-0.5,0.3-0.8,0.3c4,24.8,9,49.4,18.8,72.7c0.3-0.3,0.3-0.8,0.3-1
		c-0.3-3-0.8-6-1-9c-0.5-3-1-6-1.5-8.8c-0.5-1.8-0.5-3.8-3-4.5c-0.8-0.3-1.5-1.3-1.5-2c0-2.3,0.5-4.8,0.5-7c0-2.8,0-5.3-0.3-8
		c-0.5-3-1.3-6-2.3-8.8c-1-3-2.3-6-3.3-8.8c-0.3-1-0.5-2.3-0.8-3.3c-1.3-2.8-2.5-5.5-3.8-8.3C103,238.7,102.5,237.4,102.2,236.2z
		 M81.9,148.9c-1.3,0.5-2,1-3,1c-1.8,0.3-2.3,1.5-2.8,3c-1.8,5-3.5,10.3-5.5,15.3c-1,2.8-1,3,1.5,4.3c0.3,0,0.5,0.3,0.5,0.3
		c2,1.8,4,3.3,6,5c1,1,2,2,3.3,3c0.3,0,0.5-0.3,0.8-0.3c-0.8-5.3,0-10.5-0.3-15.5C81.4,159.7,81.9,154.4,81.9,148.9z M56.1,158.7
		c-2.5,0.8-4.5,1.3-6.5,2c1.5,1,2.8,1.5,4,2c0.3,0,1-0.3,1.3-0.5C55.3,161.2,55.6,160.2,56.1,158.7z M81.7,135.1
		c-0.3,1-0.3,1.8-0.5,3C82.2,137.1,83.2,136.6,81.7,135.1z"/>
</g>
</svg>
