<?xml version="1.0" encoding="utf-8"?>
<!-- Generator: Adobe Illustrator 23.0.6, SVG Export Plug-In . SVG Version: 6.00 Build 0)  -->
<svg version="1.1" id="Layer_1" xmlns="http://www.w3.org/2000/svg" xmlns:xlink="http://www.w3.org/1999/xlink" x="0px" y="0px"
	 viewBox="0 0 2592 1728" style="enable-background:new 0 0 2592 1728;" xml:space="preserve">
<image style="overflow:visible;" width="1667" height="2367" xlink:href="Calligraphr-Template_2.png"  transform="matrix(0.7029 0 0 0.7029 1303.1599 31.1485)">
</image>
<path d="M1812.8,416.3c0.4,1.4,0.6,2.9,1.2,4.2c0.9,2.2,1,4.2,0.4,6.5c-0.5,2.1-0.4,4.3-0.6,6.4c-0.2,0.1-0.5,0.4-0.6,0.3
	c-2.4-1.4-4.8-1.2-7.4-0.7c-4.6,0.9-10.3-2.3-11.5-6.5c-1.7-5.8,1.1-11.7,6.3-13.5c2.3-0.8,4.9-0.8,7.3-0.7
	C1810.1,412.4,1811.5,414.2,1812.8,416.3z M1806.3,424.6c2.5-1,3,2.5,5.2,2.2c0.1-1,0.3-2,0.3-3c0-1,0.2-2.1-0.2-3
	c-0.7-1.7-1.4-3.6-2.6-4.8c-0.8-0.8-2.5-0.6-3.8-0.8c-0.5-0.1-1-0.1-1.5-0.3c-1.6-0.7-2.9,0-4.2,0.9c-2.7,2-4.2,8.5-2.2,11.3
	c1.1,1.5,2.9,3,4.6,3.5c2.3,0.7,4.9,0.8,6.9-0.8C1809,427.5,1805.8,427.1,1806.3,424.6z"/>
<path d="M1978.6,433.7c-1.9,1.9-2.5,1.9-3.5,0.3c-0.9-1.3-1.8-2.7-2.6-4.1c-1.9-3.2-4.5-4.5-8.4-3.1c-0.2,1.4-0.5,2.9-0.9,5
	c-1-0.6-2-0.9-2.2-1.5c-0.5-1.4-0.7-2.9-0.8-4.4c-0.1-2.2,0-4.4-0.1-6.7c-0.1-2.2-0.4-4.4-0.6-6.7c0-0.1,0.1-0.2,0.2-0.3
	c4.1-1.7,8.2-2,12.1,0.5c2.8,1.8,3.9,4.8,4.5,7.9c0.1,0.7-0.4,1.7-0.8,2.3c-0.6,0.9-1.5,1.7-2.3,2.5c0,2,1.6,3,2.5,4.4
	C1976.5,431.3,1977.6,432.5,1978.6,433.7z M1962.9,424.2c0.6,0.3,0.8,0.4,0.9,0.3c1.8-0.2,3.7-0.4,5.5-0.6c2.4-0.3,3.3-1.3,3.3-3.6
	c0-3.6-1.8-6-5.3-6.5c-1.5-0.3-3.1,0-4.4,0C1962.9,417.5,1962.9,420.8,1962.9,424.2z"/>
<path d="M2228,615.1c1,0.4,1.6,0.9,2.3,0.9c2.2-0.1,4.5-0.2,6.7-0.4c1.8-0.2,3.7-0.4,5.3,1.4c-0.7,0.3-1.1,0.7-1.5,0.7
	c-4.1,0.3-8.2,0.6-12.3,0.8c-2.8,0.1-2.9,0-5.4-1.4c1.9-2.5,3.7-5,5.7-7.6c-2.2-1.9-5.5,0.6-7.3-2.3c1.9-1.2,3.8-0.8,5.5-0.7
	c2.9,0.2,5.1-0.5,6.4-3.4c0.5-1.1,1.3-2,2.2-3.3c-4.5-1.7-9,0.2-13.6-1.7c1-0.6,1.4-1.1,1.8-1.2c1.8-0.1,3.7-0.1,5.5-0.2
	c1.1,0,2.2,0,3.4,0c1.3,0,2.7,0.2,4,0c1.5-0.2,2.4,0.3,3.1,1.8c-1.6,2.2-3.2,4.5-5,6.8c1.4,0.5,2.5,0.9,4,1.4
	c-1.8,2.7-4.3,1.1-6.6,2.2C2231.1,610.7,2229.7,612.7,2228,615.1z"/>
<path d="M1940.5,947.1c0.5-0.4,1-1.1,1.4-1.1c3.2-0.2,6.4-0.4,9.6-0.5c0.5,0,1.1,0.5,1.7,0.9c-2.1,1.6-2.1,1.6-4.3,2.2
	c-0.1,0.7-0.3,1.6-0.3,2.4c0,6.9-0.1,13.7,0,20.6c0,2,0.5,3.9,0.7,5.7c1.5,0.9,3.5-0.9,4.2,1.6c-0.7,1.2-2.1,1.5-3.5,1.4
	c-2.9-0.2-5.9,0.7-8.7-0.8c0.9-2.3,3.2-0.9,4.2-2.2c0-9.3,0-18.6,0-27.6C1944,948.2,1941.7,949.5,1940.5,947.1z"/>
<path d="M2376.6,1130.6c-2.2,0.8-3.2-1-4.8-1.3c-4.1,1.6-4.5,5.6-5.2,9.2c-0.6,3.3-0.3,6.5,2.8,8.9c1.8,0.2,4,0.9,5.6-0.7
	c1.4-1.3,2.3-3.1,3.6-4.8c0.7,3.2,0.5,3.7-2.8,8.2c0.4,2.1,1,4,1.1,6c0.1,1.2-0.6,2.5-2.1,2.7c-1.5,0.3-2.7-0.4-3.5-1.6
	c-0.6-1-0.5-1.9,0.9-2.5c0.6,0.7,1.3,1.5,2,2.3c1.3-1.1,1.2-2.3,0.2-3c-0.7-0.5-1.8-0.5-2-0.6c-1.7-1.4-2.8-2.5-4-3.4
	c-2.1-1.5-3.8-3.2-3.8-6c0-2.5-0.4-4.9-0.2-7.4c0.3-4.6,2.9-7.8,6.9-10.1C2374.5,1127.1,2374.5,1127.1,2376.6,1130.6z"/>
<path d="M1508.4,422.9c0.2-5,2.6-8.4,6.6-10.9c3.2-2,7.4-1.2,9.1,2.1c1.8,3.6,3.6,7.3,3,11.7c-0.5,3.7-3.8,8.1-7.3,9.1
	c-3.5,1-7.9-1-9.5-4.9C1509.3,427.8,1509,425.3,1508.4,422.9z M1518.3,413c-0.2,0-0.4-0.1-0.5,0c-6.8,2.4-9.3,12.7-4.4,18
	c2,2.2,4.8,2.5,7.4,0.9c5.1-3.1,5.7-10.8,1.7-14.9C1521.2,415.5,1519.7,414.2,1518.3,413z"/>
<path d="M2092.4,415.9c3.2-5.4,9.3-6.2,12.9-1.8c-0.9,1.6-1.8,0.5-2.7,0c-2.3-1.5-5-1.1-7.1,0.8c-0.2,0.1-0.2,0.5-0.3,0.9
	c1.3,1.7,3.2,2.8,5.2,3.9c2.2,1.2,4.1,2.7,6.1,4.2c2.4,1.9,2.5,4.5,1.4,7.1c-1,2.4-3.1,3.5-5.6,3.8c-5.7,0.6-9-2.4-9.4-8.7
	c0.7,0.2,1.5,0.2,1.9,0.6c0.5,0.5,0.6,1.4,0.9,2c2.1,4.4,5.4,5.3,9.7,2.5c1.1-2.8,0.2-5.1-2.2-6.8c-2-1.4-4.2-2.7-6.3-3.9
	C2094.9,419.3,2092.7,418.5,2092.4,415.9z"/>
<path d="M1378.3,253.6c-0.4-0.6-0.9-1.1-0.9-1.6c-0.3-2.8-0.5-5.7-0.6-8.6c0-2.2,0.2-4.5,0.3-6.7c0.1-0.9,0.3-1.7,1.7-1.8
	c1.2,3.1-1.3,6.4,0.5,9.3c2.6,0,4.2-0.6,7.8-2.8c1.8-2.7-1.7-6.1,0.8-8.7c1.7,0.2,1.8,1.2,1.9,2.2c0.2,2.2,0.5,4.4,0.8,6.6
	c0,0.4,0.1,0.8,0,1.1c-1,2-0.2,3.9,0,5.9c0.2,1.3,0.4,2.8-1.6,3.4c-2.7-2-0.4-5.3-2.1-7.9c-2.4,1.1-4.8,2.2-7.3,3.3
	C1378.3,249.4,1381.8,252.3,1378.3,253.6z"/>
<path d="M1799.9,612.5c1.8-3.4,3.3-6.1,5-9.1c4,2.2,4.9,6.9,9,8.9c2.2-4,4.4-7.9,6.7-12c0.8,0.1,1.3,0.2,2.2,0.3
	c-1.7,2.9-3.2,5.6-4.7,8.3c-0.7,1.3-1.2,2.8-1.9,4c-1.5,2.4-2.8,2.5-4.6,0.4c-1.9-2.1-3.8-4.2-5.8-6.4c-3,1.9-2.3,6.4-6,7.6
	c-2-1-3.3-3-4-5c-0.9-2.4-2.2-4.4-3.8-6.3c-0.4-0.4-0.6-1-1.3-2.2c1.2,0.4,2.1,0.3,2.4,0.7c1.5,2.2,2.8,4.4,4.2,6.6
	C1797.8,609.7,1798.7,610.9,1799.9,612.5z"/>
<path d="M1665.9,425.5c0.2,2.1,0.3,4,0.5,6.3c-0.3,0.2-0.8,0.6-1.6,1.2c-0.4-0.7-1-1.1-1-1.7c-0.3-3.5-0.6-6.9-0.8-10.4
	c-0.1-2.2,0-4.5,0-6.6c4.3-2.4,8.9-1.5,11.5,2.3c2.3,3.3,1.4,6.3-2.5,7.6C1670.3,424.9,1668.4,425.1,1665.9,425.5z M1665.5,422.7
	c2.4,1.1,4.2,0.5,5.9-0.3c2.2-1,2.6-2.9,1.1-4.8c-2-2.5-3.7-2.9-7-1.4C1665.5,418.3,1665.5,420.5,1665.5,422.7z"/>
<path d="M2088.4,618.2c-0.4-2.3,0.9-5,4.4-9.8c-1.6-3.8-5.8-6-7.8-10.3c3.1,0,4,2,5.3,3.4c1.4,1.4,2.7,2.9,4.2,4.4
	c3.4-2.2,4.5-5.9,7.1-8.7c0.6,0.3,1.1,0.6,1.8,0.9c-1.6,4.3-5.9,6.9-6.4,11.7c-2.7,0.3-4.1,2.1-5,4.4
	C2091.3,615.7,2090.4,617.2,2088.4,618.2z"/>
<path d="M1960.8,600.5c4.2,0.5,4.8,4.5,7.2,6.3c2.1-0.4,2.9-2,3.8-3.4c0.9-1.3,1.8-2.7,2.7-4c0.6-0.8,0.7-0.7,2.7,0.1
	c-2.4,3.1-4.7,6.2-7.2,9.4c1.6,1.7,3.1,3.4,4.5,4.9c-0.6,1.6-1.5,1.4-2.4,0.7c-1.2-1-2.3-2.1-3.5-3.1c-2.3,1.1-2.8,3.1-3.6,5
	c-0.8,0-1.5,0-2.4,0c0.9-2.8,2.5-4.8,4.1-7c-1.9-2.3-3.9-4.5-5.7-6.9C1960.8,602.2,1960.9,601.4,1960.8,600.5z"/>
<path d="M1811,238.2c3,0.4,1.8,2.8,3,4.3c0.6-0.4,1.4-0.6,1.9-1.2c1.9-2.1,3.8-4.3,5.7-6.4c0.3-0.3,0.8-0.3,1.7-0.7
	c0,4.2-4.3,5.2-5.4,8.3c2.3,3.2,6.2,4.3,9.3,6.5c-0.1,1.5-0.9,1.9-2,1.4c-2-1-3.9-2.2-5.8-3.4c-1.5-0.9-2.8-1.9-5.2-1.9
	c0.4,2.5,0.8,4.6,1.1,6.6c-1.2,0.9-1.9,0.5-2.1-0.6C1812.5,247,1811.8,242.9,1811,238.2z"/>
<path d="M1391.3,602.1c0.5,4.8,0.3,9.7,2.1,14.5c-1.4,1-2.2,0.3-2.6-0.9c-0.5-1.7-0.7-3.4-1-5.1c-0.5-2.5-0.9-5-1.4-7.6
	c-0.1-0.5-0.3-0.9-0.5-1.2c-2.3-1.9-5.4,0-7.7-2c1.6-2.2,3.8-1.2,5.5-1.2c2.1-0.1,4.2,0.1,6.3,0.5c1.8,0.3,4-0.7,5.7,1.2
	C1396.2,602.4,1393.7,600.7,1391.3,602.1z"/>
<path d="M1530.4,599.5c0.2,0.5,0.4,0.9,0.5,1.4c0.7,3.8,0.3,7.5-1.2,11c-1.3,2.8-5.6,4.6-8.7,3.7c-2.9-0.8-5.3-2.2-6.2-5.3
	c-0.6-1.9-1.4-3.7-2-5.6c-0.3-1.1-0.7-2.4,0.8-3.2c1.5,0.6,1.4,2,1.8,3.2c0.5,1.5,1,3.1,1.4,4.6c0.3,1.3,1.1,2.1,2.1,2.9
	c1.9,1.4,3.9,2.3,6.2,1c2.2-1.2,3.5-3.1,3.8-5.6c0.1-1.7,0-3.5,0.1-5.2c0-0.8,0.3-1.6,0.5-2.3
	C1529.8,599.8,1530.1,599.7,1530.4,599.5z"/>
<path d="M1670.5,616c-2.9-1-4.5-2.3-6-4.1c-2.3-2.8-4.9-5.2-7.5-7.9c0.8-1.5,1.8-1.2,2.8-0.1c2,2,4,4.1,6,6.1c1.2,1.2,2.5,2,4.5,1.5
	c1.2-1.9,1.7-4.2,2.4-6.4c0.6-1.9,1-4.3,3.6-5.7c0.1,0.9,0.3,1.4,0.2,1.8C1674.8,606.2,1673,611.2,1670.5,616z"/>
<path d="M1676.2,248.5c2.4-1.8,4,1.2,6.2,0.1c2.9-4,2.1-8.9,2.5-14c0.6-0.1,1.6-0.5,2.1-0.2c0.6,0.3,1.1,1.4,1,2.1
	c-0.4,3.8-0.8,7.7-1.5,11.5c-0.3,1.5-0.4,3.4-2.3,3.9c-2.1,0.5-4.2,0.6-5.9-1.2C1677.7,250.1,1677.1,249.4,1676.2,248.5z"/>
<path d="M1531,252.9c-0.1-6.5-0.1-12.7,0-19.1c1-0.1,1.7-0.1,2.5-0.2c0.2,0.7,0.5,1.4,0.4,1.9c-0.7,4.7,0.1,9.4,0.1,14.2
	C1534,251.2,1533.8,252.6,1531,252.9z"/>
<path d="M1972.2,251.9c-0.4-1.2-1.2-2.4-1.2-3.6c0.1-3.9-1-7.6-1.9-11.3c-0.2-0.7-0.2-1.4,0.4-2.4c0.5,0.5,1.2,1,1.4,1.6
	c0.8,3.1,1.7,6.2,2.2,9.4c0.6,4.1,0.8,4.3,4.9,3c0.7-0.2,1.4-0.6,2.1-0.5c0.6,0,1.2,0.6,2.5,1.3
	C1978.8,250.3,1976,252.1,1972.2,251.9z"/>
<g>
	<path d="M2230.4,1317.4c1,0.5,1.7,0.9,2.6,1.4c-1.1,4.7,2,9.2,0.6,14c-3.5,0.6-4.9-2.8-7.4-3.8c-2.4-1-4.5-2.9-6.9-4.4
		c-0.7,1.6-0.2,3.2,0.2,4.7c0.3,1.5,0,2.7-1.9,3.1c-1.3-1-1.5-2.5-1.6-4c-0.1-1.4-0.1-2.7-0.2-4.1c-0.2-1.4-1.2-2.9,0.3-4.3
		c1.6-0.4,3,0.3,4.4,1.3c1.8,1.3,3.5,2.7,5.4,4c1.2,0.8,2.5,1.5,3.9,2.3C2231.1,1324.1,2228.1,1320.8,2230.4,1317.4z"/>
	<path d="M2224.3,1311.8c0.6-0.8,1.2-1.7,1.9-2.8c1,0.5,1.8,0.9,2.8,1.5c-0.4,1.1-0.5,2.1-1,2.9c-1.4,2.5-3.4,2.9-5.9,1.4
		c-0.9-0.6-1.9-1.2-3.5-2.1c-0.5,1-1,2.2-1.6,3.3c-2-2.1-2-2.1-0.4-4.8C2219.4,1309.2,2221.6,1312.1,2224.3,1311.8z"/>
</g>
<g>
	<path d="M2086.9,765.5c2,0.4,2.6,1.9,3,3.3c1.3,4.8,3.2,9.4,4.1,14.3c0.4,2.2,1.1,4.4,1.8,6.5c1.7,5.4,3.6,10.8,5.3,16.3
		c0.1,0.5,0.2,0.9,0.3,1.3c-1,1.3-1.8,0.8-2.6,0c-1.6-1.9-2.1-4.2-2.6-6.5c-0.5-2.4-1.1-4.8-1.6-7.2c-4-2.2-7.5-0.2-11.5-0.1
		c-1.1,5.3-2.1,10.4-3.2,15.7c-0.5,0.1-1.1,0.3-1.9,0.4c-0.1-0.6-0.4-0.9-0.3-1.2c0.7-4.3,1.5-8.6,2-12.9c0.3-2.4,1-4.7,1.8-7
		c1.1-3.4,1.1-7.1,1.8-10.6c0.7-3.5,1.6-7,2.4-10.5C2086,766.6,2086.6,766.1,2086.9,765.5z M2092.6,789.5c-0.2-2-0.2-3.9-0.5-5.7
		c-0.2-1.2-0.8-2.3-1.2-3.5c-0.6-1.8-1.1-3.5-1.6-5.3c-0.3-1-0.4-2-2-2c-1.5,1.5-0.7,3.7-1.3,5.5c-0.5,1.8-1,3.6-1.1,5.4
		c-0.1,1.9-1.6,3.8-0.1,6.1C2087.3,790.6,2089.9,789.9,2092.6,789.5z"/>
	<path d="M2086.4,758.8c-1.3,1.6-2.2,2.8-3.1,3.8c-1.1,1.2-2.2,1.5-3.4-0.1c1.7-2.1,3.4-4.2,5.2-6.4c3.6,0.1,6.1,2.1,8.2,4.8
		c-1.3,1.9-2.4,1.4-3.6,0.5C2088.7,760.6,2087.8,759.9,2086.4,758.8z"/>
</g>
<g>
	<path d="M1518.2,1510.5c0.3-1.3,0.5-2.7,0.9-4c0.9-3.1,2.8-5.2,6.3-5.5c2.9-0.2,5.9-0.8,8.5,1.3c3.6,2.8,5.3,9.3,3.6,13.6
		c-1.3,3.1-2.8,6-6.4,7.4c-3.5,1.3-6.1,0.1-8.4-2.2C1520.5,1519,1518.5,1513.7,1518.2,1510.5z M1524.9,1503.4
		c-1.9,1.3-3.2,3.3-3.3,6c-0.2,3.6,0.8,6.7,3.3,9.6c3,3.5,6.1,3.3,8.6-0.5c2-3.1,2-6.3,1.2-9.6c-0.9-3.5-2.1-4.6-5.5-5
		C1527.7,1503.7,1526.4,1503.5,1524.9,1503.4z"/>
	<path d="M1518.6,1494.4c1.7-1.8,3.2-3.4,4.3-4.6c4-0.5,4.9,2.8,7.3,4c-0.3,0.9-0.5,1.5-0.8,2.2c-0.6-0.1-1-0.1-1.2-0.2
		c-1.5-0.8-2.9-1.8-3.9-2.4C1522.1,1493.7,1521.2,1496.7,1518.6,1494.4z"/>
</g>
<g>
	<path d="M1379.2,419.6c-1.3,3.5,0.2,6.3,1.4,9c-0.2,1.2-0.6,2.2-2.3,2.2c-0.7-3.9-2.1-7.6-1.1-11.5c0.2-1,1.1-1.7,1.9-2.9
		c5.9,4.2,11,8.6,15.9,14.3c-1.2,0.1-2,0.4-2.4,0.1c-0.9-0.6-1.7-1.4-2.5-2.2c-2.8-2.7-5.5-5.4-8.3-8
		C1381,420.1,1380.1,420,1379.2,419.6z"/>
	<path d="M1396.8,432.1c-1.1-5.5-1.8-10.8-1.7-16.3c0-0.5,0.6-0.9,1.2-1.8c0.4,1.1,0.9,1.7,0.9,2.4c-0.1,4.5,0.6,8.9,1.5,13.3
		C1398.9,430.6,1398.9,431.7,1396.8,432.1z"/>
</g>
<path d="M1953.6,940.5c-3.6,1.8-5.2-1.3-7.6-1.3c-4,2.3-4,2.3-5.7,0.7c1.5-1.1,2.8-2.5,4.4-3.3c1-0.5,2.6-0.6,3.5-0.2
	C1949.9,937.3,1951.5,938.8,1953.6,940.5z"/>
<g>
	<path d="M2080.6,953.2c-0.1,0.7-0.3,1.4-0.3,2.1c0.2,4.9,0.4,9.7,0.6,14.6c0,1.1,0.1,2.3,0,3.4c-0.1,1.1-0.6,1.9-2.2,1.9
		c-0.2-0.5-0.6-1.2-0.7-1.8c-0.1-1.5,0-3-0.1-4.5c-0.4-7.6-0.9-15.1-1.3-22.8c1.2-0.6,1.2-0.6,2.9-0.4c2.4,5.5,6.2,10.2,9.4,15.7
		c1.4-1.9,1-3.4,0.8-4.8c-0.5-3.8-1.2-7.6-1.7-11.4c-0.2-1.4,0.1-2.7,1.7-3.6c2.3,3.2,1.4,7,2.2,10.4c0.8,3.5,1,7.1,1.4,10.7
		c0.4,3.5,0.7,7.1,1.1,10.6c-3.2,0.7-3.5,0.4-4.8-4c-0.5-0.2-1.1-0.5-1.8-0.8c1-2.3,0-4.1-1.2-6c-1.9-3-3.6-6.2-5.4-9.3
		C2081.1,953.1,2080.9,953.1,2080.6,953.2z"/>
	<path d="M2087.6,937.4c0,1.9-0.6,3.1-2.7,3.7c-0.6-0.4-1.5-0.9-2.2-1.4c-0.8-0.6-1.5-1.2-2-1.6c-2.1-0.1-1.8,4.2-4.7,1.9
		c0-2.4,2.1-3,3.7-4.2C2082.2,936.3,2084.7,936.8,2087.6,937.4z"/>
</g>
<g>
	<path d="M1659.3,776.6c0.6,1.2,1.2,2.5,1.8,3.8c-1.1,1.3-2.1,0.9-3.2,0.4c-3.8-1.8-5.8-1.1-7.5,2.6c-1.6,3.6-2.2,7.3-1.6,11.2
		c0.2,1.5,0.6,2.9,0.7,4.4c0.1,3.3,2.1,5.9,3.8,8.4c1.5,2.3,4.1,3.3,6.6,3.9c2.5,0.5,6.4-2.7,7-5.6c0.4-1.8,0.5-3.7,1.9-5.3
		c1.5,1.3,0.5,2.7,0.5,3.9c0,4.5-3.1,7.9-7.2,8.9c-3.9,1-7-0.6-9.6-3.5c-3.7-4.3-5.3-9.4-6-15c-0.4-3.2,0-6.1,0.6-9.2
		c1-4.4,3.7-6.9,8-7.8C1656.6,777.4,1657.9,777,1659.3,776.6z"/>
	<path d="M1653.9,754.3c-0.2,2.4,1.3,4.7-0.1,6.9c-3.5,0.5-5-1.7-4.3-6.4C1650.7,753.7,1652,753.3,1653.9,754.3z"/>
</g>
<g>
	<path d="M1380.6,1119.8c5.3-0.4,8.4,2.6,10.9,5.6c0.4,2,0.9,3.5,0.9,5.1c0.2,4,0.2,7.9,0.2,11.9c0,1.2-0.5,2.5-0.4,3.7
		c0.1,2.9-1.2,5.4-2.7,7.6c-2.8,4.2-9.5,3.5-12.3-1.1c-1.9-3.3-2.7-6.9-3.2-10.7c-0.4-3.5,1.6-6.5,1.8-9.8
		C1376.2,1127.6,1378.4,1123.8,1380.6,1119.8z M1383.2,1123.1c-3.1,2.7-3.7,5.8-4.5,8.9c-1.1,4.3-0.9,8.6-0.8,13
		c0,2.9,1.4,5.3,3,7.4c1.8,2.3,5,2,6.5-0.6c0.5-0.9,0.9-2.1,0.8-3.2c-0.1-4.1,1.2-8.1,0.2-12.2c-0.4-1.5-0.1-3.3,0.3-4.8
		c0.5-1.9,0.1-3.5-1.1-4.9C1386.4,1125.5,1384.9,1124.5,1383.2,1123.1z"/>
	<path d="M1381.6,1115.4c-1.1,0.4-2.1,0.8-3.1,1.3c-0.5-2.2-0.5-2.2,0.7-5.8c3.3,0,4.9,2.5,6.5,4.8c0.7,0.9,0,1.9-1.4,2.4
		C1383.6,1117.2,1382.7,1116.3,1381.6,1115.4z"/>
</g>
<g>
	<path d="M1529.5,793.4c-0.7-2.3,1.3-3.6,1.7-5.4c-0.9-2.1-2.4-3.9-4.1-5.5c-0.9-0.8-0.8-0.9-0.4-3.1c0.7,0.3,1.5,0.4,1.9,0.8
		c1.6,1.7,3,3.5,4.6,5.2c1.2,1.3,1.4,2.6,0.5,4C1532.7,791.1,1531.7,792.7,1529.5,793.4z"/>
	<path d="M1522.6,792.8c1.1-2.1,2-3.8,3-5.5c-1.4-1.8-2.7-3.4-4.2-5.3c4.4-0.6,5.2,3.1,7.8,4.5
		C1527.2,788.9,1526.3,791.9,1522.6,792.8z"/>
</g>
<g>
	<path d="M2242.5,1153.8c-2-0.7-2.9-2.1-3.9-3.3c-1.3-1.4-2.8-2.1-4.6-1.8c-3.8,0.6-7.6,1.1-11.4,1.9c-1.1,0.2-2.1,1.1-3,2
		c-1.2,1.2-2.1,2.8-3.3,4.1c-0.5,0.6-1.2,1-2,1.7c-0.2-0.7-0.5-1.2-0.4-1.3c4.5-6.2,9-12.5,13.6-18.9c1,0.6,2,0.9,2.7,1.5
		c3.9,3.5,7.8,7,11.6,10.5C2242.7,1151,2243.3,1152.1,2242.5,1153.8z M2224.7,1146.6c3.4,0.8,6.1,0.8,9.1,0
		c-1.2-2.3-2.8-3.6-5.4-3.9C2227.3,1143.8,2226.1,1145,2224.7,1146.6z"/>
	<path d="M2232.2,1132c-1.6,0.8-2.6,0.1-3.7-0.4c-2.6-1.3-2.6-1.2-4.8,0.7c-0.5,0.5-1.1,0.8-2,1.4c-0.9-2.5,0.9-3.7,2-5
		c0.6-0.7,2.1-1.2,2.9-0.9C2228.8,1128.5,2230.7,1129.8,2232.2,1132z"/>
</g>
<g>
	<path d="M1940.4,796.6c-0.2,6.9-2.6,12.7-4.5,19.3c-1-0.8-1.7-1.4-2.2-1.9c2.1-6.1,3.7-11.9,4.4-18c0.2-1.3,1.1-2.5,1.4-3.8
		c1.5-5.9,3.3-11.7,3.7-17.9c0-0.6,0-1.4,0.3-1.8c1-1.5,1.2-3.2,1.2-5c0.1-1.5,0.8-2.3,2.6-1.9c4.1,15.9,7.6,31.9,12.3,47.6
		c0.2,0.5-0.1,1.2-0.1,1.6c-1.1,0.8-1.9,0.5-2.3-0.4c-0.3-0.5-0.3-1.2-0.5-1.8c-1.3-4.8-2.5-9.6-3.9-14.4c-0.3-0.9-1.4-2-2.3-2.1
		C1947.3,795.8,1944.1,795.7,1940.4,796.6z M1945.7,773.5c-0.3,1.8-0.8,3.4-1,5.2c-0.2,1.7-0.5,3.3-1,5c-0.9,2.8-2,5.9-0.7,9.2
		c2.7-0.5,5.3,1.5,7.9,0.3C1950.2,784.3,1948.1,776.1,1945.7,773.5z"/>
	<path d="M1954.3,751.8c-2.4,2.9-4.5,5.4-6.7,8c-1.7-1.1-1.4-2.1-0.6-3.3c1-1.5,2-3.1,3-4.9C1951.6,751.1,1951.6,751.1,1954.3,751.8
		z"/>
</g>
<g>
	<path d="M2077.2,1316.8c0.8-1,1.6-1,2.3-0.2c0.4,0.5,0.5,1.1,0.6,1.7c0.9,4.4,1.9,8.7,2.7,13.1c0.2,1.2,0.5,2.5-1.1,3.4
		c-1.4-1.1-2.2-2.5-2.5-4.3C2078.5,1326.1,2077.9,1321.6,2077.2,1316.8z"/>
	<path d="M2077.3,1306.8c1.4,1.5,2.7,2.8,4.1,4.2c-1.6,1.6-1.6,1.6-4,0.1c-1.5,1.2-1.5,1.2-3.2,0.9
		C2074.2,1309.7,2075,1308.1,2077.3,1306.8z"/>
</g>
<g>
	<path d="M1383.3,784.5c3.1-2.6,5.9-4.9,9.2-7.7c-0.2,4-3.4,4.7-5,6.8c1.2,2.1,2.4,4.1,3.9,6.6c-1.1,0-1.8,0.2-2,0
		C1387.5,788.5,1385.6,786.7,1383.3,784.5z"/>
	<path d="M1385.9,778.9c-1.5,1.8-2.8,3.4-4.1,4.9c0.1,1.2,0.1,2.3,0.2,3.4c-2,0.5-2.6-0.7-3.4-1.8c-0.1-1.6,0.6-2.9,2-3.4
		C1382.4,781.3,1382.8,778.3,1385.9,778.9z"/>
</g>
<g>
	<path d="M2374.4,796c2.2,0,3.7,0,5,0c0.7-0.8,1.3-1.4,1.9-2c1.8,0.4,2.3,1.4,1.8,3.2c-3.5,1.2-6.9,3-10.7,0.7
		c-1.2-1.3-1.1-2.9-0.9-4.5c0.4-4.2,0.9-8.4,1.5-12.6c0.8-5.4,1.6-10.8,1.4-16.3c0-1,0.2-2,0.3-3.2c1-0.4,2-0.9,3.1-1
		c2.2-0.3,4.4-0.4,6.6-0.4c0.3,0,0.7,0.6,1.2,1.1c-2.1,2.5-5.1,0.9-7.5,2.1c-1.7,4.5-1.3,9.4-1.7,14.3c1,0.8,2,1.5,3.3,2.5
		c-1.3,0.7-2.4,1.4-3.6,2.1C2375.3,786.4,2374.6,791,2374.4,796z"/>
	<path d="M2372.7,749.4c0.8-0.4,1.4-1,1.8-0.9c2.9,1,4.5,3.3,6.3,5.6C2378.5,754.9,2378.5,754.9,2372.7,749.4z"/>
</g>
<g>
	<path d="M1369.5,1335.2c-0.1-2.3-0.3-4.1-0.4-5.9c-1.1-0.5-2.2-1-3.2-1.4c-0.3-2.6,2.2-1.8,3.2-2.9c0.9-2.8-0.9-6.5,2.5-8.8
		c4.3-0.7,8.6-1.7,13.5-0.6c-0.7,0.7-1,1.5-1.5,1.7c-1.8,0.4-3.7,0.7-5.5,0.8c-1.5,0.1-2.9,0-4.4,0c-1.2,2.4-1.8,4.5-0.9,6.7
		c2.3,1.8,5.1-1.3,7.3,1.3c-0.2,1.9-1.8,1.9-3.3,1.9c-1.3,0-2.7,0-4.2,0c0,2,0,3.5,0,5c2.7,1.1,7.8,1.3,13.7,0.5
		c0.3,0.6,0.6,1.3,1.2,2.6C1381.3,1335.9,1375.4,1337.7,1369.5,1335.2z"/>
	<path d="M1371.9,1305.2c3.6,0.6,4,0.8,7,3.9c-0.4,1.4-1.3,2.1-2.7,1.3c-1.4-0.9-2.7-2-4-3.2C1372,1306.8,1372,1306.1,1371.9,1305.2
		z"/>
</g>
<g>
	
		<image style="overflow:visible;" width="1667" height="2367" xlink:href="Calligraphr-Template_1.png"  transform="matrix(0.7029 0 0 0.7029 108 32.0592)">
	</image>
	<path d="M191.8,989.5c-0.8,0.7-1.4,1.3-2,1.9c-0.4-0.4-0.9-0.6-0.9-0.8c-0.4-2.2-0.8-4.4-1-6.6c-0.6-6.1-1.1-12.1-1.6-18.2
		c-0.3-3.2-0.5-6.4-0.6-9.6c-0.2-5.4-0.3-10.9-0.4-16.7c4.6-5.8,13.4-4.6,16.4,2.4c1.7,3.8,1.6,7.5,0.2,11.3
		c-0.2,0.7-0.6,1.4-0.9,2.1c4.4,1.7,7.4,4.4,9.2,8.8c1.3,3.1,2.4,6.3,2.9,9.6c0.6,3.9,0.2,7.7-1.9,11.2c-0.6,0.9-1.3,1.9-2.2,2.5
		C204.4,990.6,198.7,992.9,191.8,989.5z M188.8,960.4c-0.1,1.1-0.3,2-0.3,2.8c0.5,6.6,1,13.1,1.7,19.7c0.4,3.4,3.3,5.8,6.6,5.8
		c2.1,0,4.2-0.3,6.3-0.7c3.7-0.8,6.1-3.1,7.2-6.8c2-7,0.2-13.4-3.8-19.1c-2.1-3-6.2-5.2-10.6-3.5c-1.3,0.5-2.7,0.5-4,0.9
		C190.9,959.8,189.8,960.1,188.8,960.4z M188.1,956.5c7.3,1.9,12.5-1.7,13-8.6c0.4-5.3-4.9-10.3-10.1-9.3c-1.2,0.2-2.3,0.8-3.7,1.3
		C187.6,945.6,187.8,951.1,188.1,956.5z"/>
	<path d="M620,1140.6c3.6-7.6,6.9-14.4,10.1-21.3c1-0.2,1.9-0.5,3.1-0.7c0.6,3.2,1.3,6.3,1.7,9.3c0.5,4.4,0.7,8.9,1.2,13.4
		c0.4,4.1,1,8.1,1.5,12.2c0.2,1.4,0.4,2.7,0.4,4.1c-0.1,3.3,0.5,6.4,1.8,9.5c0.4,0.9,0.9,1.9-0.4,2.9c-0.4-0.5-1.1-0.9-1.3-1.4
		c-0.6-1.9-1.3-3.8-1.5-5.8c-0.6-5.4-1-10.9-1.6-16.3c-0.5-4.7-1.2-9.4-1.8-14.1c-0.2-1.5-0.3-3-0.5-4.4c-0.2-1.6-0.6-3.1-0.9-4.6
		c-0.3,0-0.5-0.1-0.8-0.1c-1.2,2.4-2.3,4.8-3.5,7.2c-1.1,2.3-2.4,4.7-3.4,7.1c-1,2.4-1,5.4-3.9,7.2c-5-5.8-8.5-12.5-12.4-19
		c-0.8,2.9-0.6,5.7-0.3,8.5c0.3,4.2,0.8,8.4,1.3,12.6c0.4,3.5,0.8,6.9,1.3,10.4c0.1,1,0.2,2,0.2,3c0,2.3,0.1,4.5,1.1,6.6
		c0.6,1.2,0.8,2.6-0.4,4.3c-0.6-0.8-1.3-1.3-1.4-2c-0.6-4.1-1.1-8.1-1.6-12.2c-0.3-2.2-0.5-4.4-0.7-6.7c-0.5-4.4-0.9-8.9-1.4-13.3
		c-0.5-4.3-1-8.6-1.4-12.9c-0.1-1.4,0-2.9,0-4.2c1.5-0.7,2.2,0,2.8,0.9c1.7,2.6,3.4,5.2,5,7.9C614.7,1132.2,617.2,1136.1,620,1140.6
		z"/>
	<path d="M1047.6,993.3c-2.1-6-2.1-12.2-3-18.1c-1-6-1.2-12.1-1.7-18.2c-3.8,1.4-11.5,6.9-16.3,11.6c-0.2,7.9,0.7,15.9,2.4,24.4
		c0,0-0.6,0.6-1.1,1.3c-0.5-0.4-0.9-0.5-1-0.8c-0.4-1.2-0.9-2.4-1-3.6c-0.6-6.7-1.2-13.4-1.7-20.1c-0.7-8.9-1.4-17.9-1.9-26.8
		c-0.2-2.8-0.5-5.7,0.4-8.6c1.3,2.2,1.4,2.6,1.6,4.7c0.5,7.5,1,14.9,1.6,22.4c0.1,1.1,0,2.3,1.4,3c4.8-3.6,9.6-7.2,15-11.2
		c0.8-6.4-1.6-13.4,0.2-20.5c0.2,0.4,0.5,0.8,0.5,1.1c0.8,9.3,1.5,18.6,2.5,27.9c0.6,6.3,1.6,12.6,2.5,18.9c0.5,3.2,1.1,6.4,1.6,9.6
		C1049.8,991.4,1049.6,992.5,1047.6,993.3z"/>
	<path d="M1187.1,1162.8c-1.1,1.7-1.9,3-2.8,4.4c-2.1,3.4-5.2,4.2-8.4,1.7c-4.2-3.4-7.2-7.5-7.3-13.3c0-1.7-0.6-3.5-0.6-5.2
		c0-2.7,0.2-5.5,0.6-8.2c0.7-4.7,1.5-9.3,2.6-13.9c0.6-2.4,1.8-4.7,3.2-6.7c1.9-2.8,4.3-3,7.1-1.2c3.4,2.2,5.6,5.5,6.5,9.3
		c1.7,7.4,1.9,15.1,1.6,22.7c0,0.1,0,0.3,0,0.4c-2.5,5.1-0.1,9.1,3.1,13.1c-0.7,0.6-1.2,1.1-2,1.8
		C1189.5,1165.9,1188.4,1164.5,1187.1,1162.8z M1186.9,1154.5c0.2-1.3,0.3-2.5,0.4-3.7c0.5-6.7,0.1-13.4-1.3-20.1
		c-0.4-2.2-1.2-4.3-3.4-5.6c-0.5-0.3-0.9-0.8-1.3-1.3c-2.5-2.9-5-2.7-6.5,0.8c-0.8,1.8-1.2,3.8-1.6,5.7c-1,5.2-2.4,10.4-2.7,15.8
		c-0.4,6.4-0.1,12.4,3.9,17.8c1.7,2.2,3.4,3.9,6.4,3.9c0.4-0.3,0.8-0.5,1.2-0.9c3.6-4.4,3.9-8.2,0.8-12.9c-1-1.5-2.2-2.9-3.5-4.7
		c1-0.1,1.7-0.5,2-0.2c0.9,0.8,1.7,1.7,2.6,2.6C1184.7,1152.7,1185,1154.2,1186.9,1154.5z"/>
	<path d="M904,939.2c-0.8-0.7-1.4-1.1-2-1.7c-0.5-0.5-0.9-1.1-1.4-1.7c-2.6-0.2-4.2,1.2-5.3,3.1c-1.9,3.5-3.6,7-5.4,10.6
		c-0.6,1.3-1.1,2.8-1.5,4.2c-0.3,1-0.4,2.1-0.5,3.2c-0.1,0.5,0.1,1,0,1.5c-1.9,5-1,10-0.6,15.1c0.3,3.3,0.8,6.4,1.7,9.5
		c0.9,3.1,2.9,5.3,5.5,6.8c3.9,2.4,7,0.3,8.5-4c0.7-2,0.7-4.2,0.8-6.3c0.1-4,0-7.9,0-12.3c-1.3-0.1-2.4-0.4-3.4-0.4
		c-1.1,0-1.9-0.2-2.4-1.5c2.4-2,5.1-1.5,7.7-1.3c1.7,2,2.2,4.2,2,6.4c-0.4,5.8,1.6,11.3,1.7,17.1c0,1.3,0.6,2.6,1,4.1
		c-0.7,0.5-1.3,1-2.2,1.7c-2.3-3.7-0.4-8-2.6-11.5c0,0.8-0.2,1.6-0.1,2.3c0.2,2.3-0.7,4.1-2.2,5.7c-3.3,3.5-8.6,3.5-12.3,0.2
		c-3.4-3-4.8-6.8-5.2-11.1c-0.2-1.9-0.5-3.7-0.8-5.5c-1.5-8.2,0.7-16.1,2.9-23.8c1-3.6,2.5-7.1,4.3-10.3c1.1-2,2.9-3.8,4.8-5
		C900.1,932.5,904.3,934.2,904,939.2z"/>
	<path d="M330.4,1134.6c2.2-3.4,4.3-6.8,6.3-10.1c1.3-2.2,2.5-4.6,3.8-6.9c0.5-0.8,0.8-1.9,2.5-1.2c-0.2,0.7-0.2,1.6-0.6,2.3
		c-1.4,2.5-2.9,4.9-4.3,7.4c-1.9,3.4-3.7,6.9-5.6,10.4c3.3,5.4,6.6,10.4,9.6,15.5c2.4,4.2,4.6,8.6,6.8,12.9c0.6,1.2,0.3,2.2-1.1,2.5
		c-1.5-0.3-2-1.4-2.4-2.6c-2.1-6.3-6.1-11.6-9.4-17.3c-0.9-1.5-1.7-3-2.6-4.5c-0.6-1.1-0.8-2.4-2.6-2.9c-0.3,0.7-1,1.4-1,2.1
		c0.1,6-0.6,11.9,0.3,17.9c0.6,3.7,0.7,7.4,0.9,11.2c0,0.7-0.3,1.4-0.4,2c-1.5,0.5-2.2-0.1-2.4-1.3c-0.2-1-0.1-2-0.2-3
		c-0.4-8.8-0.8-17.6-1.1-26.4c-0.1-3.4,0.2-6.9,0.3-10.3c0-1.2-0.2-2.5-0.3-3.7c-0.1-3.7-0.3-7.5-0.3-11.2c0-0.5,0.6-1,0.8-1.4
		c1.6,0.4,1.4,1.6,1.4,2.5c0,4,0,8,0,12C329.1,1131.8,328.7,1133.3,330.4,1134.6z"/>
	<path d="M199.8,1326.5c3.1,4.7,5.7,9.4,9.2,13.4c1,1.1,1.8,2.4,2.5,3.7c0.6,1.3,0.3,2.4-1.5,2.7c-4.2-6.2-8.4-12.3-12.6-18.5
		c-1.8,0.5-3.2,0.9-4.6,1.2c-1.2,2.3-0.8,4.7-0.5,6.8c0.5,3.7,1.5,7.3,2.3,10.9c0.4,1.7,0.5,1.7-1.5,3.1c-1.3-0.4-1.5-1.5-1.7-2.7
		c-0.5-4.3-1-8.6-1.7-12.9c-0.2-1.2-1-2.3-1.8-3.9c1.1-1.4,1.4-3.4,0.8-5.6c-0.3-1-0.3-2-0.3-3c-0.3-4.2-0.6-8.4-0.8-12.7
		c-0.1-1,0-2,0-3.1c1.4-0.9,2.6-2,4-2.7c1.7-0.9,3.5-1.6,5.4-0.8c3.8,1.5,6.8,4.2,8.4,8c0.5,1.2,0.6,2.7,0.9,4
		c1,4.8-0.9,8.2-4.9,10.7C201.1,1325.7,200.7,1326,199.8,1326.5z M191.5,1327c1.1,0,1.7,0.1,2.1,0c1.9-0.8,4-1.5,5.7-2.7
		c1.8-1.2,3.9-2.2,4.5-4.7c1.2-4.7-1-10.5-5-13.1c-2.1-1.3-4.2-1.5-6.3-0.1c-2.1,1.4-2.7,3.4-2.4,5.9c0.3,2,0.3,4,0.5,5.9
		C190.9,1321,191.2,1323.9,191.5,1327z"/>
	<path d="M896.6,1340.2c3.4-6.7,3.4-14.2,6-21.2c2.4,0.8,3,2.9,3.7,4.8c1.8,4.7,3.3,9.6,5,14.4c0.3,0.8,0.9,1.4,1.8,2.8
		c2.8-12.3,2.5-24.2,3.9-36.1c0.2,0.6,0.7,1.2,0.7,1.8c-0.2,6.2-0.6,12.5-0.6,18.7c0,6.6-2.4,13-1.7,19.7c0.1,0.5-0.3,1.1-0.5,1.9
		c-1.8-0.3-2.7-1.3-3.3-2.8c-1.6-4.3-3.3-8.6-4.9-12.9c-0.9-2.3-1.3-4.8-3.2-6.9c-1.6,3-1.8,6.1-2.4,9.1c-0.7,3.8-1.5,7.6-2.4,11.3
		c-0.2,1-1.1,1.8-1.7,2.6c-2-0.6-2.3-2.1-2.5-3.4c-0.9-4.1-1.6-8.3-2.4-12.5c-1.1-5.2-2.2-10.5-3.3-15.7c-0.4-1.9-0.9-3.9-1.4-5.8
		c-0.2-0.7-0.2-0.7,1.1-2.4C892.2,1318.4,893.3,1329.6,896.6,1340.2z"/>
	<path d="M1048.6,763.6c1,0,2,0,3,0c2.2,0,4.6-0.4,6.5,1.2c2.5,2.2,4.6,4.8,5.1,8.1c0.5,3.4,1.5,6.8,0.3,10.4
		c-0.8,2.2-1.6,4.3-3.8,5.3c-1.6,0.8-2.3,2.2-3,3.6c-2.7,5.3-7.5,6-11.9,2c-3.8-3.4-5-7.2-4.1-12.3c0.7-4.1,1.3-8.1,3-11.9
		C1045,766.8,1045.2,766.4,1048.6,763.6z M1055,787.9c-1,0.6-1.6,1-2.3,1.3c-2.6,1.1-4.5,0.6-5.6-1.8c-1.7-3.8-1.8-7.8-0.4-11.7
		c0.9-2.5,4.1-3.6,6.6-2.7c2.5,0.9,3.3,2.7,2.8,5.7c-0.5,3-0.7,5.9,1.5,8.6c3.2-1.2,3.8-4.2,3.9-6.7c0.1-4.9-0.7-9.7-4.3-13.5
		c-1.2-1.3-2.5-1.9-4.2-2c-4.4-0.1-5.9,0.9-7.8,5c-2.1,4.6-2.2,9.4-2.3,14.3c-0.1,3.1,1.3,5.5,2.9,7.9c1.2,1.8,4.7,2.7,6.4,2
		C1054.3,793.3,1055.3,791,1055,787.9z M1053.3,775.8c-3-1-4.6-0.5-4.8,1.7c-0.2,2.4-0.2,5,0.1,7.4c0.2,1.4,1,2.9,3.3,2.4
		C1054.4,783.7,1053.3,779.6,1053.3,775.8z"/>
	<path d="M631.2,238.1c2.7-2.7,0.2-6.6,2.7-9.7c0.5,1.1,1.1,1.8,1,2.5c-0.3,3.1-0.8,6.2-1.2,9.2c-0.1,0.9-0.4,1.7-0.6,2.4
		c0.9,1.7,1.7,3.2,2.5,4.5c-0.9,1.3-1.7,1-2.3,0.3c-0.5-0.5-0.8-1.2-1.3-1.9c-2,0.7-2.7,2.5-3.4,4.2c-0.6-0.1-1.2-0.3-1.7-0.1
		c-4.2,1.3-8.8,0.1-11.4-3.2c-1.6-2-1.5-4.5-1.4-6.8c0.1-1.7,0.9-3.3,1.3-5c0.6-2.7,2.2-5,3.7-7.2c1.1-1.6,1.3-3,0.6-4.9
		c-1.1-3.2-1.3-6.5,0.4-9.7c1.3-2.4,4.1-3.9,6.4-3.2c2.5,0.8,4.6,4.1,4,6.5c-0.8,3-1.6,6.1-5,7.4c-0.4,0.2-0.8,0.6-1.4,1.1
		C624.3,229.9,627.6,234,631.2,238.1z M629.8,242.9c-2.6-5-5.3-9.9-8.3-14.5c-0.7,0.2-1,0.2-1.1,0.4c-0.5,0.5-1,1.1-1.4,1.7
		c-3.6,5.2-3.7,10.5-0.3,14.8c2.6,3.3,6.6,3.3,9.2,0.1C628.4,244.8,628.9,244.1,629.8,242.9z M627.5,213.3c-1.3-1.6-3-1.5-4.9-1.1
		c-2.1,3.1-1.1,6.5-0.9,10.2c2.1-1.3,4-1.7,5.2-3.5C628.1,217,628.1,215.2,627.5,213.3z"/>
	<path d="M915.9,1145.8c0.3,4.9-0.2,10-1.5,14.9c-0.6,2.5-1.9,4.9-3.4,6.9c-2,2.8-4.6,3.3-7.9,2.3c-6.2-1.9-9.3-6.7-10.8-12.3
		c-1.4-5.2-2.1-10.7-2.8-16.1c-0.5-4.4-0.3-9,1.4-13.2c1-2.5,2.5-4.8,3.9-7.1c0.4-0.6,1.1-1,1.7-1.3c3.7-1.8,8.2-0.8,11.4,1.9
		c6.1,5,7.2,11.9,8,19C916,1142.4,915.9,1144,915.9,1145.8z M913.7,1146.6c0-4.7-0.2-9.1-1.2-13.5c-0.9-3.8-2.4-6.8-5.5-9.3
		c-4.4-3.6-8.8-3.3-12.1,1.3c-3.4,4.7-3.9,10.2-3.5,15.7c0.4,6.2,1.9,12.3,3.8,18.2c1.4,4.3,4,7.7,8.7,8.9c1.5,0.4,2.8,0.4,3.8-0.7
		c1.1-1.1,2.2-2.3,2.9-3.7C913.4,1158.1,913.9,1152.3,913.7,1146.6z"/>
	<path d="M1196.7,805.6c-0.6,0.2-1.1,0.4-2,0.8c-2.9-8-5.1-15.9-7.6-24.1c-4.4,0.1-8.6-0.1-12.5,2.5c-0.3,2.5-0.6,5.1-1,7.7
		c-0.1,1.1-0.3,2.2-0.5,3.3c-0.3,2.7-0.7,5.4-0.9,8.1c-0.2,1.9-0.1,1.9-1.6,3.6c-1.3-1.3-0.7-2.8-0.6-4.2c0.5-6.2,1.8-12.3,2.3-18.5
		c0.4-6,2.1-12,3.3-17.9c0.8-3.8,1.7-7.5,2.5-11.3c0.2-1.1,0.4-2.2,1.6-2.6c1.5,0.3,1.8,1.4,2.1,2.5c0.7,2,1.4,4,1.9,6
		c2.6,9.2,5.1,18.5,7.8,27.7C1193.1,794.5,1194.8,799.8,1196.7,805.6z M1186.4,779.4c-0.9-2.8-1.7-5.3-2.5-7.8
		c-0.7-2.5-1.3-5.1-2-7.6c-0.7-2.4-0.6-5.1-2.7-7.4c-2.4,8-3.7,15.7-4,24.2C1179.1,779.9,1182.6,780.4,1186.4,779.4z"/>
	<path d="M341.9,1306.7c-0.7-0.8-1.2-1.3-1.6-1.9c-2-2.5-4.8-3.4-7.6-2.4c-2.9,1-4.5,3.3-4.9,6.4c-0.3,3.2,0.9,5.8,2.7,8.3
		c0.7,0.9,1.5,1.7,2.2,2.5c1.5,0.5,3.1,0.9,4.6,1.5c7.9,3.1,12.2,11.1,10.5,19.6c-0.2,0.9-0.5,1.7-0.5,2.6c0.1,3.1-1.7,5.1-4.2,6.6
		c-1.4,0.8-2.8,1.7-4.3,2.2c-4.1,1.3-7.7,0.9-10.9-2.6c-2.3-2.5-3.7-5.2-4.6-8.4c-0.3-1.3-0.6-2.7,0.8-3.6c1.5,0.3,1.3,1.5,1.4,2.4
		c0.5,3.5,2,6.3,4.7,8.7c3.2,2.8,8,2.8,11.3,0.2c3.1-2.5,3.7-5.9,4-9.4c0.3-3.6-0.6-7.1-2.4-10.4c-1.6-3-4.1-4.9-7.5-5.7
		c-5.4-1.2-9.1-5.5-10.1-11.1c-0.6-3.4,0-6.4,2.2-9.1c3-3.8,7.9-4.1,11.6-2.7c1.8,0.7,3.1,2.1,3.9,3.9
		C343.3,1304.9,343.3,1304.9,341.9,1306.7z"/>
	<path d="M458.9,989.8c-0.2-0.5-0.5-1.1-0.6-1.6c-0.6-7.2-1.2-14.4-1.6-21.6c-0.4-7-0.5-13.9-0.8-20.9c0-1-0.3-2-0.4-3
		c-0.1-1.6-0.2-3.2-0.4-5.2c1.8-0.2,3.3-0.7,4.6-0.4c7.8,1.8,14.1,5.5,17.3,13.3c2,5,3.5,10.2,2.9,15.6c-0.5,4.2-0.2,8.5-2.1,12.4
		c-2.4,5-5.5,9-11.2,10.5C461.7,990.2,461.8,990.4,458.9,989.8z M457.9,938.5c-0.2,1.5-0.5,2.5-0.4,3.6c0.2,4.3,0.6,8.7,0.7,13
		c0.1,3.6,0.1,7.2,0.1,10.8c0,2.3-0.2,4.7,0.1,7c0.5,3.8,1.2,7.6,2.1,11.4c0.3,1.5,0.5,3.2,2,4.2c2.4-0.9,5-1.4,7-2.8
		c3.6-2.6,6.4-6,7.5-10.4c0.5-1.9,0.6-3.9,0.8-5.9c0.2-2.5,0.6-5,0.4-7.4c-0.4-4.5-1.9-8.7-4-12.7
		C470.8,942.9,465.1,940.1,457.9,938.5z"/>
	<path d="M472.4,1537.2c0.8-0.7,1.2-1.4,1.8-1.5c2.3-0.4,4.7-0.8,7-0.8c2.7,0,5.2-0.7,7.3-2.3c1.1-4.6-2.2-8.1-6.8-7.2
		c-3.2,0.6-6.2,1.6-9.4,2.4c0,2.4,0,4.7,0,7.3c-1,0.2-1.9,0.4-3.2,0.6c-0.7-6.7-0.1-13.2-2.1-19.7c4.6-2.7,9.4-3.5,14.5-1.7
		c2.4,0.8,4,2.5,3.9,5.3c0,0.9,0.1,1.7,0.2,2.5c2.1,1.3,4.1,2.5,6.1,3.7c0.2,0.8,0.3,1.4,0.4,2c0.3,4.9-1.9,8.2-6.8,9.1
		c-3.6,0.7-7.4,0.7-11.1,0.9C473.7,1537.9,473.3,1537.5,472.4,1537.2z M472.4,1524.4c2.3-0.4,4.4-0.6,6.5-1.1c0.7-0.1,1.4-0.5,2-0.9
		c2-1.4,1.8-3.6-0.2-4.8c-2.9-1.7-5.9-1.7-9-0.8C470.6,1519.3,471.1,1521.7,472.4,1524.4z"/>
	<path d="M203.4,1171.2c1.4-1.7,1.6-3.7,1.7-5.7c0.1-5.2,0.4-10.4-0.4-15.7c-0.6-3.9-0.6-7.9-0.9-11.9c-0.4-4.2-0.8-8.4-1.2-12.6
		c-0.2-2.1-0.3-4.2-0.5-6.1c-1.6-1.2-3.5,0.8-4.8-1.2c4.3-2.3,8.5-2.7,13.1-1.1c-0.9,3.1-3.3,0.4-4.6,1.7c-1.3,2.2-1.5,4.6-1.1,7.1
		c0.2,1.2,0.5,2.4,0.6,3.7c0.3,3.3,0.4,6.7,0.9,10c1,7.8,1.7,15.6,1.4,23.5c-0.1,2.5-0.5,5-0.9,7.4c-0.4,2.4-3.3,3.9-5.5,3
		c-4-1.6-6.3-4.7-7.7-8.6c-0.6-1.5-0.7-3.2-0.8-4.8c0-0.7,0.5-1.4,0.9-2.6c0.7,0.9,1.1,1.2,1.2,1.6c0.3,3.2,1.7,5.9,3.4,8.5
		C199.3,1169.7,201,1170.7,203.4,1171.2z"/>
	<path d="M1043.9,1143.8c1,8.9,1.3,17.6,4,25.7c-1.1,1.2-1.9,0.9-2.3,0c-0.6-1.5-1.2-3.1-1.4-4.6c-0.9-7-1.7-14.1-2.5-21.1
		c-0.5-4.1-1.1-8.1-1.7-12.2c-0.3-2.5-0.5-4.9-0.7-7.2c1.6-1.3,2.8-2.6,4.3-3.4c5.6-3,10.4-2.6,12.5,4.5c0.9,2.9,1.7,5.9,0.9,9.2
		c-1.3,5.1-4.3,8-9.4,8.8C1046.6,1143.6,1045.6,1143.6,1043.9,1143.8z M1044.5,1141c1.3,0,2.5,0.2,3.7,0c3.5-0.5,6.9-3.7,7-6.8
		c0.1-3.5-0.2-7-2.1-10.1c-0.6-0.9-1.4-1.8-2.3-2.2c-2.6-1.1-9.1,2-8.9,5.4c0.4,4.2,1.1,8.3,1.6,12.5
		C1043.6,1140.1,1044,1140.3,1044.5,1141z"/>
	<path d="M203,779.4c7.6,9.5,7.6,12.6,0.6,18.1c-4.2-0.1-6.5-2.5-8.1-6.4c-1.7-4.4,1.5-7,3.2-10.3c-1.8-2.4-5.1-2.6-7.1-4.5
		c-2.1-5.3-0.7-9.6,4.1-12.5c2.4-1.5,4.7-1.2,6.8,0.8c0.6,0.6,1.2,1.3,1.8,1.9c2.1,2.3,2.5,4.7,1.1,7.5
		C204.5,775.8,203.8,777.7,203,779.4z M200.3,765.8c-6-0.5-8.4,2.5-7.1,9c2.1,1,4.4,2.2,6.5,3.3c2.7-1,3.3-3.4,3.2-5.3
		C202.8,770.4,202.6,767.7,200.3,765.8z M202,781.8c-1.1,0.9-1.8,1.3-2.4,2c-3.3,4-2.9,7.5,0.8,10.7c1.7,1.5,3,1.3,4.5-0.4
		c1.8-2,1.7-4.5,0.8-6.7C204.9,785.6,203.5,784,202,781.8z"/>
	<path d="M185.4,1507.5c1.1-2.4,2.9-1.4,4.9-2.1c3.4-5.5,6.3-11.9,9-18.5c-4.2-0.3-8.2-0.5-13-0.8c1.1-1,1.5-1.7,2-1.7
		c1.8-0.2,3.7-0.1,5.6-0.1c2.2,0,4.4,0.1,6.6,0.1c1,0,1-0.1,2.3,1.1c-3.2,6.4-6.4,12.9-9.8,19.8c2,0,3.5,0,5.1,0
		c0.2,1.7-0.7,2.3-1.6,2.1c-4.5-0.5-6,2.2-7.1,5.9c-0.9,3.1-2.4,5.9-3.9,9.3c1.4,0.2,2.3,0.5,3.2,0.5c3.2,0,6.5-0.1,9.7-0.1
		c0.9,0,1.9,0.1,3,0.2c-0.4,2.3-2,2.1-3.2,2c-3.5-0.1-6.9,0.1-10.4,0.5c-1.5,0.2-2.9,0.2-4.2,0.3c-1.4-1.6-0.8-2.8-0.2-4.1
		c1.4-3.1,2.7-6.2,4-9.3c0.6-1.4,1-2.8,1.5-4.4C187.7,1508,186.7,1507.8,185.4,1507.5z"/>
	<path d="M474.1,1309.3c-4.4-0.4-7.9,2.4-12,1.5c-0.2-1.5,0.7-2.2,1.6-2.3c5.3-0.5,10-2.8,15.1-4c2.1-0.5,4-1.3,6.1-1.9
		c1.1-0.3,2.2-0.7,3,1.1c-2.9,3.1-8,1.5-10.9,4.9c-0.1,4.1-0.3,8.3-0.4,12.5c-0.1,4.9-0.1,9.9-0.2,14.8c0,1.6-0.4,3.2-0.4,4.8
		c0.1,2.3,0.3,4.7,0.5,7c0.1,1.3-0.2,2.2-2,2.2c-0.3-0.4-0.8-0.9-0.8-1.5c-0.2-3.3-0.3-6.6-0.4-9.9c0-0.9,0.3-1.8,0.1-2.6
		c-1.1-5.6,0.2-11.1,0.1-16.7C473.6,1316,474,1312.8,474.1,1309.3z"/>
	<path d="M618.1,1306c2,0.4,1.9,1.7,2,2.8c0.3,3.6,0.3,7.2,0.8,10.8c0.4,3.2,1.7,6.3,1.9,9.5c0.3,3.2,1.2,6.1,2.6,8.9
		c0.7,1.4,1.5,2.9,2.6,4.1c3.2,3.3,6.2,2.6,7.5-0.5c1.2-2.8,3-5.7,2-9.2c-0.2-0.6-0.2-1.3,0.1-1.8c2-3.8,1.1-7.7,0.7-11.7
		c-0.3-2.6-0.2-5.2-0.3-7.8c-0.1-1.3-0.2-2.7-0.4-4.3c0.7,0.2,1.3,0.2,1.5,0.4c0.3,0.5,0.4,1.1,0.5,1.7c0.8,9.7,1.6,19.3-0.4,28.9
		c-0.6,2.7-0.8,5.4-3.3,7.5c-1.6,0.4-3.3,1.4-5.5,0.7c-3.2-0.9-5.4-2.8-6.4-5.8c-1.5-4.3-3.1-8.6-4.1-13.1c-1-4.2-1.2-8.4-1.4-12.6
		c-0.1-2.1-0.5-4.2-0.6-6.3C617.8,1307.7,618,1307,618.1,1306z"/>
	<path d="M1053.1,1302.4c0,1.6,0.1,3.2,0,4.8c-0.5,5-0.9,9.9-1.8,14.8c-0.6,3,0.1,5.4,1.3,7.9c2,4.3,4,8.6,6,12.9
		c0.4,0.9,1,1.9-1,2.5c-3-4.1-3.8-9.5-7-14.2c-1,5.1-2.9,9.4-2.3,14.2c0.1,1.1-0.3,2.2-0.7,3.3c-0.2,0.4-0.9,0.7-1.9,1.4
		c0-1.7-0.2-2.8,0-3.8c0.8-4.7,1.5-9.4,2.5-14c0.6-3,0.7-5.9-1-8.7c-2.9-4.9-5.8-9.9-8.7-14.8c-0.8-1.4-2.4-2.6-1.2-4.8
		c2.7,0.8,2.4,3.7,3.9,5.2c1.6,1.6,2.4,4,3.7,6c1.2,1.9,2.4,3.8,3.8,6c1.2-3.3,1.4-6.4,1.8-9.5c0.3-3.1,1-6.3,1.5-9.4
		C1052.3,1302.4,1052.7,1302.4,1053.1,1302.4z"/>
	<path d="M774.5,1305.2c1.5-0.2,1.7,0.7,1.6,1.6c-0.9,5.8-1.9,11.5-2.7,17.3c-0.5,3.9-0.8,7.9-1,11.9c-0.2,3,0,5.9-0.1,8.9
		c0,0.5-0.6,0.9-1.5,2.3c-0.5-1-1-1.7-1.2-2.3c-1.6-4.7-3.2-9.4-4.9-14.1c-0.3-0.9-0.8-1.8-1.1-2.8c-2-4.8-4.1-9.6-5.9-14.5
		c-0.8-2.1-1.1-4.4-1.6-6.7c1.8-0.2,2,1,2.4,2c1.6,4.1,3,8.2,4.6,12.2c1.9,5,3.9,9.9,5.9,15.3c0.6-0.9,1.2-1.5,1.2-2.1
		c0.3-2.7,0.3-5.4,0.6-8.1c0.2-1.9,0.8-3.8,1.1-5.8c0.4-3.1,0.8-6.2,1.1-9.3C773.3,1309,773.5,1307,774.5,1305.2z"/>
	<path d="M1173.2,939.3c0.5-2.1,1.7-2.5,3-2.5c3.1-0.1,6.2-0.2,9.3-0.1c0.6,0,1.2,0.6,1.7,0.9c-0.7,2-2.6,1.1-3.7,2.2
		c-1.2,1.4-0.8,3.3-0.7,5.2c0.1,0.9,0.5,1.7,0.5,2.6c0.3,5.7,0.5,11.4,0.9,17.1c0.3,4.6,1,9.1,1.5,13.7c0.2,1.6,0.4,3.2,0.6,4.8
		c0.2,1.2,0.4,2.4,0.5,3.4c1.3,0,4,0.7,4.6,1.1c-0.5,0.4-0.9,1-1.3,1.1c-3.1,0.7-6.3,1.3-9.5,1.8c-0.4,0.1-1-0.5-1.5-0.8
		c1-2.1,3.2-1.5,4.8-2.8c0-2.1,0.3-4.5,0-6.8c-1.3-9.4-2-18.8-2.2-28.2c-0.1-3.9-1-7.9-1.5-12
		C1177.9,939.7,1175.7,939.5,1173.2,939.3z"/>
	<path d="M762.8,1517.2c0.3,2.9,0.6,6,0.9,9c0.4,3,1.6,5.9,0.9,9.7c-1-0.8-1.5-1.1-2-1.6c-0.2-0.2-0.3-0.7-0.4-1.1
		c-0.6-3.8-1.2-7.6-1.8-11.4c-0.3-1.9-0.6-3.9-0.9-6c3.8-3.8,9.1-3.6,12.7-1.3c4.4,2.8,7.4,6.3,8.1,11.4c0.5,3.9-0.7,7-4,9.4
		c-3.3,2.5-7.2,2.5-11,2.8c-0.2,0-0.5-0.4-1.1-0.9c0.8-0.4,1.3-0.9,1.9-1c1.7-0.3,3.5-0.4,5.2-0.8c4.9-1.1,7.6-5.4,6.1-10.4
		c-0.7-2.5-2.1-4.5-3.8-6.4C771,1515.6,766.3,1515,762.8,1517.2z"/>
	<path d="M751.5,960.4c2.4,1.4,4.5-1.5,6.6,0.6c-1.4,2.2-4.3,1.2-6.2,3.5c-0.1,0.8-0.4,2.3-0.3,3.7c0.4,4.6,0.8,9.2,1.6,13.7
		c0.3,1.6,1.4,3.1,2.2,4.6c0.5,0.9,1.2,1.6,1.8,2.5c-0.5,0.6-1,1.1-1.5,1.6c-2.7,0-3.6-2.1-4.4-3.4c-0.4-3.8-0.6-7.2-1-10.5
		c-0.1-0.9-0.3-1.7-0.4-2.6c-0.3-5.5-0.5-10.9-0.9-16.4c-0.3-4.7-0.8-9.4-1.3-14.1c-0.2-1.7,0.1-3.2,1.3-4.8
		c4.1-1.3,8.5-2.1,12.9-2.5c0.5,0,1.1,0.5,2.3,1c-4.8,1-8.9,1.8-12.7,2.6c-1.6,2.3-1.8,4.3-1.7,6.5c0.2,3.5,0.4,6.9,0.7,10.4
		C750.8,958.3,751.3,959.5,751.5,960.4z"/>
	<path d="M471.3,219.6c-0.8-0.7-2-1.4-2.3-2.4c-0.5-1.4-0.9-3.2-0.5-4.7c0.9-3.9,2.8-5.1,6.8-4.6c0.9,1.2,1.8,2.5,2.9,4
		c2.2-1.6,4.3-3,6.2-4.4c1.3,1.2,0.7,2.2,0.2,3c-3.9,6.5-7.3,13.3-10.2,20.3c-0.6,1.4-0.8,3.1-1.1,4.6c-0.3,1.5-0.8,2.3-2.5,1.5
		c1.8-8.6,6.9-15.7,9.7-23.7c-1.4-0.5-2.4,0.2-2.6,1.1C477.1,217.5,474.7,218.5,471.3,219.6z"/>
	<path d="M898.9,763.6c-0.4-1.3-0.7-1.7-0.6-2.1c1.1-4.8,3.6-8.9,7.7-11.5c4.3-2.7,11.1-3,14.7,3.7c3.4,6.4,2.4,15.3-1.8,19.6
		c-1.8,1.8-4.1,3.2-6.5,5.1c-0.4,3.9,1.1,8.2-0.1,12.4c0,0.1-0.4,0.1-1.1,0.3c-0.4-0.9-1-1.9-1.1-2.9c-0.2-3.1-0.2-6.2-0.2-9.3
		c0-0.6,0.2-1.2,0.4-2.1c1.2-0.7,2.4-1.5,3.7-2.1c3.9-1.8,5.6-5,6.4-9c0.8-4.1,0.3-7.9-2.1-11.4c-2.8-4.1-8.1-4.9-12-1.7
		c-2.1,1.7-4.1,3.7-5.1,6.4C900.8,760.2,899.9,761.6,898.9,763.6z"/>
	<path d="M1186.3,1349.1c-1.5-1.1-1.2-2.3-0.9-3.5c1.1-5.5,2.3-10.9,3.3-16.5c0.2-1.4,0.1-3.1-0.5-4.3c-1.3-2.6-3-5.1-4.6-7.6
		c-1.7-2.6-3.4-5.2-5-7.8c-0.4-0.6-0.5-1.3-0.8-1.9c1.4-1.3,2.2-0.4,2.9,0.5c1.7,2.6,3.4,5.3,5.1,7.8c1.3,1.9,2.7,3.7,4.4,6
		c2.6-6.5,2.4-13,5.6-18.6c1.8,0.6,1.5,1.8,1.2,2.8c-1,3.7-2.1,7.4-3.2,11.1c-0.4,1.5-0.9,3.1-1.3,4.7c-1,4.1-2.1,8.2-3.1,12.3
		c-0.2,0.7-0.3,1.5-0.4,2.2c-0.6,3.8-1.1,7.6-1.7,11.4C1187.3,1348.2,1186.7,1348.6,1186.3,1349.1z"/>
	<path d="M335.2,941.2c-2.5-1-3.2-3.6-6.1-3.7c-3.4,2.3-5.9,5.3-5.8,9.9c0,1.6-0.4,3.2-0.7,4.8c-1.3,6.3,0.2,12.4,1.2,18.5
		c0.7,4.7,1.9,9.3,3.1,13.8c0.4,1.4,1.3,2.7,2.3,3.7c1.8,1.9,4.5,2,6.3,0.1c1.2-1.3,2.3-3,2.9-4.7c0.8-2.3,1.2-4.8,1.7-7.3
		c0.2-1.1,0.2-2.2,2-3c-0.1,1.4-0.1,2.5-0.2,3.6c-0.3,3.8-1.2,7.3-3.3,10.6c-1.4,2.2-3.3,3.3-5.6,4.1c-0.6,0.2-1.6,0.1-2.1-0.2
		c-2.6-1.6-5-3.4-5.7-6.6c-2-8.6-4.3-17.2-3.9-26.1c0.1-3.1-0.2-6.2,0.1-9.3c0.3-4.5,2.4-8.4,4.8-12c1.6-2.4,4.2-2.4,6.5-0.5
		c0.8,0.7,1.7,1.5,2.4,2.4C335.1,939.8,335,940.5,335.2,941.2z"/>
	<path d="M1191.3,1534.9c-1.8,0.7-2.5-0.3-2.5-1.7c-0.1-2.7,0-5.5,0-8.4c-0.5-0.1-1-0.2-1.6-0.4c-0.1,0.5-0.3,0.8-0.2,0.9
		c1.5,2.2,1,4.3-0.2,6.3c-2.1,3.5-5.4,5.1-9.4,5.2c-2.3,0-3.8-1.2-5-3.3c-2.9-5.5-2.1-10.7,1.3-15.4c2.3-3.2,5.9-4,9.7-3.7
		c1.1,0.1,2.4,0.6,2,2.5c-0.5,0-0.9,0.1-1.2,0c-2.4-1.5-4.6-0.7-6.7,0.4c-2.2,1.2-3.6,2.9-4.1,5.5c-0.6,3-0.9,5.9,0.4,8.8
		c1.6,3.8,5.3,4.7,8.6,2.2c2.8-2.2,3.4-3.9,2.2-7.2c-1.9-0.1-3.8-0.3-6.2-0.4c1.6-2.4,4-2,5.8-2.7c1.9-0.8,4-1.1,6.4-1.7
		C1190.9,1526.2,1191.1,1530.4,1191.3,1534.9z"/>
	<path d="M337.5,1516c1.3,1.1,2.5,1.8,3.2,2.8c3.4,4.9,6.6,9.9,9.9,14.7c-0.7,1.7-1.8,2.1-3,1c-0.9-0.8-1.7-1.8-2.1-2.9
		c-0.8-1.8-2.2-2.9-4-3c-3.1-0.1-6.2,0-9.3,0.4c-2.3,0.3-4.5,1.2-6.1,3.2c-1.2,1.4-1.4,1.3-4,0.8c2.7-2.8,5.2-5.4,7.6-8.1
		C332.3,1522.3,334.6,1519.4,337.5,1516z M332.5,1525.4c2.9,0.7,5.6,1.1,8.2,0.3c-0.5-3.1-0.5-3.1-3.1-5
		C335.9,1522.3,334.2,1523.9,332.5,1525.4z"/>
	<path d="M470.8,1119.9c-0.8,7.5,0.4,14.4,1.2,21.4c0.4,4.2,0.5,8.4,0.8,12.6c0.3,3.8,0.7,7.6,1,11.3c2.1,2.4,6.3,0.1,7.9,4
		c-4.1,1.2-7.4-0.4-10.8-1.6c-0.2-0.8-0.4-1.4-0.4-2c-0.4-6.7-0.7-13.4-1.1-20.1c-0.4-7.8-0.7-15.6-1.1-23.3
		C468.3,1120.8,468.6,1119.7,470.8,1119.9z"/>
	<path d="M349.5,767c0.3,1.6,0.7,2.9,0.7,4.2c0.4,5.2,0.6,10.4,1,15.6c0.2,2.5,0.8,4.9,1.3,7.5c-0.7,0.3-1.3,0.5-1.8,0.7
		c-1-0.8-2.7-13-2.4-17.3c-0.8,0.7-1.4,1.2-2,1.7c-2.7,2.2-5.3,2.5-7.9,0.9c-2.2-1.4-3.2-4.1-2.6-7.2c0.5-2.5,1.3-4.8,3.3-6.5
		c1.3-1.1,2.7-1.7,4.4-1.2C345.3,766.1,347.2,766.4,349.5,767z M346.9,768.7c-2.7-1-5-1.9-7.1,0.4c-2.3,2.6-2.2,5.6-0.9,9
		c1.4,0.4,2.9,0.8,4.2,1.2C347.2,776.5,347.7,773,346.9,768.7z"/>
	<path d="M1184.1,617.1c-2.1-1.6-2.2-2-1.5-4.7c0.4-1.5,0.8-3,1.2-4.6c-1.7-0.4-3-0.7-4.9-1.1c2-1.9,4-0.7,5.9-1.6
		c1.5-2.8,3.9-5.5,3.1-9.7c-3.3-0.2-6.6-0.4-10.1-0.6c-0.5,0.9-1.1,2-1.7,3c-2.1-0.9-2.1-0.9-0.7-5.2c2.5-1.1,5-0.1,7.6,0
		c2.6,0.1,5.2-0.1,8.2-0.3c0.4,0.9,0.8,2,1.2,2.9c-1.5,2.9-2.9,5.6-3.4,8.2c0.5,1.9,3.6,1.3,2.6,4.1c-1.3,0.2-2.8,0.3-4.6,0.5
		C1186.1,610.9,1185.2,613.8,1184.1,617.1z"/>
	<path d="M611.6,1533.5c0.8,0.7,1.6,1.5,2.5,2.2c3.1,2.2,6.2,1.8,8.4-1.3c0.9-1.2,1.6-2.5,2.5-3.7c0.6-0.8,1.2-1.2,2.3-0.3
		c-0.5,3.2-2.1,5.7-4.8,7.5c-4.4,2.9-8.6,1.8-12.3-2.3c-3-3.4-3.5-7.8-3.1-12.3c0.2-1.5,0.3-3,0.8-4.4c1.1-2.9,3.5-4.7,6.3-5.9
		c0.9-0.4,1.8-0.7,2.8-1.1c2.3,0.2,4.6,0.6,5.9,3.5c-0.4,0.5-1,1-1.6,1.7c-1-0.9-1.8-1.7-2.5-2.3c-5.1-0.2-8.7,2.7-9,7.4
		c-0.2,2.2,0.2,4.4,0.5,6.6C610.7,1530.2,611.2,1531.6,611.6,1533.5z"/>
	<path d="M617.6,614.1c1.7-0.3,2.9-0.5,4-0.7c2.8-2.9,2.5-5.9,0.8-8.9c-2.4-1.3-4.2,0.7-6.6,0.5c0.1-0.7-0.1-1.5,0.2-1.9
		c1-1.3,2.3-2.3,3.3-3.5c0.6-0.7,1-1.5,1.9-2.9c-3.2-0.3-5.7-0.5-8.4-0.7c0-0.6-0.1-1.1-0.2-1.8c2.8-0.5,5.5-1.1,8.1-1.5
		c1.5-0.2,1.6-0.1,4.4,2.1c-1,1.8-2.1,3.6-3.1,5.5c0.2,0.2,0.4,0.6,0.6,0.8c3.6,2.1,3.8,5.5,3.3,9.2c-0.5,3.6-3.8,5.7-6.2,6.1
		c-3.2,0.6-6.9-2.5-6.4-5.5c0.1-0.4,0.2-0.7,0.5-1c0.2-0.3,0.6-0.4,0.8-0.5c1.4,0.2,1.4,1.3,1.7,2.3
		C616.6,612.5,617.1,613.2,617.6,614.1z"/>
	<path d="M1050.6,593.3c-2.5,3.1-6.1,5.5-5.6,9.9c1.9-0.7,3.7-1.6,5.6-1.9c2.5-0.5,4.5,0.9,5.3,3.2c1.1,3.4-1.1,9.4-4.1,11.2
		c-1.6,0.9-3.2,1.4-5,0.6c-1.1-0.5-2.3-0.9-3.5-1.3c-0.4-2.5-1.3-4.9-1.2-7.3c0.3-5.5,1.2-10.8,6-14.6
		C1048.8,592.5,1049.5,592,1050.6,593.3z M1047.3,614.3c5.5-0.5,7.7-5.3,4.9-10.4c-2.6-1.1-4.4,0.1-5.6,2.2
		C1044.2,610.3,1044.4,610.8,1047.3,614.3z"/>
	<path d="M905.9,598.5c5.8-0.7,7.5,0.5,9.5,6c1.7,4.9,0,8.8-3.1,12.4c-1.5,1.7-6.2,1.7-8.4,0.2c-2.2-1.5-2.7-4.3-1.4-7
		c0.1-0.2,0.4-0.2,1.1-0.5c0.2,1,0.4,1.8,0.5,2.7c0.2,2.5,0.7,3.3,2.4,3.7c2.3,0.6,4.5-0.1,5.7-1.9c2-3.1,1.8-9.2-0.6-12
		c-0.7-0.8-1.8-1.2-2.3-1.5c-2.5,0.4-3,3.1-5.3,2.7c-0.9-2.6-1-6.7-0.3-10.7c3-2,6.5-0.9,9.7-1.6c0.6,1.6-0.1,2.4-1.4,2.6
		c-0.7,0.1-1.5-0.3-2.2-0.3c-1.3,0.1-2.6,0.3-4,0.5C905.9,595.6,905.9,597,905.9,598.5z"/>
	<path d="M767.5,605.1c-3.9,0-7.7,0-11.9,0c0-0.8-0.3-1.7,0-2.3c1.2-2.7,2.6-5.4,3.9-8.1c0.4-0.9,1-1.4,2.3-0.5
		c-1,2.6-2.1,5.2-3.2,8c3.1,0.7,6,0.2,8.9,0.2c1.2-3.5-1.3-7.1,0.7-10.2c0.4,0,0.7,0,1.1,0c0.6,3.6,1.2,7.1,1.8,10.7
		c-0.3,1.5-0.8,2.9-0.3,4.8c0.5,2.3,0.4,4.7,0.4,7.1c0,0.7-0.6,1.3-1.4,1.9C767.9,613.1,768.6,609,767.5,605.1z"/>
	<path d="M893.2,1516.8c4.2-2.4,11.7-3.8,15-2.8c-0.6,0.4-0.9,0.7-1.3,0.8c-2.9,0.6-5.9,1.1-8.8,1.7c-1.7,0.3-2.7,1.4-3,3
		c-0.2,1.4-0.1,2.9-0.1,4.6c2.1,0,4,0,6.2,0c-0.7,3.4-4.6,0.9-5.6,3.8c0.9,2.1-0.2,5,1.7,7.6c3.6,0.2,6.7-3.3,10.9-1.5
		c-1.7,2.1-4.2,1.6-6.1,2.4c-2.1,0.9-4.3,1.5-6.5,0.8c-2.8-2.5-0.8-6.3-2.5-9.3c-1.5-0.2-3.1-0.4-4.6-0.6c0-0.2-0.1-0.4-0.1-0.6
		c1.2-0.5,2.3-1,3.7-1.6C892.5,1522.4,892.9,1519.7,893.2,1516.8z"/>
	<path d="M183.2,602.7c-0.5-3.6,1.2-6.3,4.2-7.3c3.3-1.2,6.3,0.1,7.5,3.5c0.6,1.5,1.1,3,1.5,4.6c1.4,4.6-2.3,10.3-7,10.8
		c-3.2,0.4-5.9-2-6.2-5.6C183.1,606.7,183.2,604.7,183.2,602.7z M186.6,598.4c-0.3,1.5-0.8,2.8-0.9,4.2c-0.2,2.5-0.6,5,0.6,7.3
		c1.5,2.9,4.8,3.1,6.6,0.3c2.7-4.3,0.8-11-4-13.4C188.1,597.3,187.3,597.9,186.6,598.4z"/>
	<path d="M486.3,595.7c-2.8,0.2-3,3.6-5.5,2.7c-0.3-2,1.1-2.9,2.4-3.9c1.3-0.9,2.6-1.4,4.2-1.1c2.6,0.6,4.3,4,3,7
		c-1.2,2.8-3,5.4-4.5,8.1c-0.7,1.3-1.5,2.5-2.3,3.8c1.9,1,3.3,0.3,4.7-0.2c1.5-0.6,2.8-0.4,4.3,1c-3.7,1.7-7.4,2-11,2.7
		c-0.5,0.1-1.1-0.4-2-0.8c1.1-1.9,2-3.6,3.1-5.3c1.6-2.4,3.3-4.7,4.8-7.1c0.7-1.1,0.9-2.6,1.5-4.6
		C488.1,597.3,487.2,596.5,486.3,595.7z"/>
	<path d="M191.6,434c1.2-4.2,2.8-8,3.2-12c0.4-4-0.2-8.2-0.7-12.2c-0.5-4.1-3.5-7.2-5.8-10.5c1.6-1.2,2.4-0.3,3.1,0.5
		c2.3,3,4.3,6.2,5,9.9c1.6,7.9,1.3,15.6-2.3,23C193.7,433.9,193.2,434.7,191.6,434z"/>
	<path d="M1042.7,1515.5c-0.4,1.6-1.5,1.5-2.4,1.7c-2,0.3-3.9,0.5-5.9,0.8c-1.6,0.2-2.5,1.2-2.6,2.7c0,1.8,0.2,3.6,0.3,5.5
		c2.3,0.4,4.3-0.8,6.3,0.6c-1.3,2.4-3.8,0.9-5.5,2.1c-0.7,2.3,2,4.5,0.4,7.1c-3.9-0.7-1.2-4.4-3.3-6.1c-0.8,0-2.1-0.1-3.3-0.2
		c0-0.2-0.1-0.4-0.1-0.6c1-0.6,2-1.1,3.2-1.8c0.9-3.1-1.4-6.6,0.9-9.8C1033.3,1515.8,1039.5,1514.8,1042.7,1515.5z"/>
	<path d="M901.7,422.1c-0.9-0.9-0.6-1.8-0.1-2.7c2.7-4.9,5.3-9.8,8.1-14.6c1.2-2,2.8-3.8,4.1-5.7c0.9-1.3,1.6-2.8,2.6-4.1
		c0.7-0.9,1.6-1.7,2.4-2.5c1.5,0.9,1,1.7,0.5,2.4c-2.2,3.3-4.6,6.5-6.6,9.9c-3,5.1-5.7,10.4-8.5,15.7
		C903.6,421.7,903.6,421.7,901.7,422.1z"/>
	<path d="M907.5,211.9c-3.1,5.2-3.9,10.2-4.4,15.1c-0.4,4.6,0.8,8.9,4.3,12.3c1,1,2.3,2.1,0.3,3.9c-3.2-2.8-5.5-5.9-6.5-10.1
		c-1.4-6.1,0.1-11.8,1.8-17.6c0.3-1.1,1.2-2.2,2-3.1C905.4,212.1,906.3,212.2,907.5,211.9z"/>
	<path d="M337.8,413.6c2.1-0.2,3.7-0.3,5.4-0.5c0.1,0.2,0.2,0.5,0.3,0.7c-0.4,0.5-0.8,1.1-1.3,1.3c-1.4,0.5-2.8,0.9-4.1,1.3
		c-0.5,3.2,1.4,6,0.1,9.2c-3.7-2.4-1.3-6.1-2.7-8.8c-2.3-2-5,0.3-7.8-0.5c1.7-3,4.6-2,6.8-2.8c1.2-1.1,0.4-2.3,0.1-3.5
		c-0.3-1.4-0.1-2.5,1.5-2.7c1.5,0.6,1.2,1.8,1.3,2.9C337.5,411.3,337.7,412.2,337.8,413.6z"/>
	<path d="M209.8,237.6c-1.9,1.6-2.8,0.9-3-0.4c-0.5-3-0.7-6.1-1-9.2c-0.2-2.1-0.5-4.2-0.7-6.3c-0.3-3.5-0.6-6.9-0.7-10.4
		c-0.1-2.2,0-4.4,0-7c0.5,0.3,1.2,0.5,1.3,0.8c0.6,6.2,0.8,12.5,1.3,18.7C207.1,228.5,206.1,233.5,209.8,237.6z"/>
	<path d="M341.9,614.7c-0.2-3.8-0.3-7-0.4-10.3c-0.1-3.2-0.3-6.4-0.4-9.9c0.5,0,1.1-0.1,1.9-0.1c0.2,0.9,0.4,1.6,0.4,2.3
		c0.3,4.7,0.7,9.4,0.9,14.1c0,0.8,0,1.8-0.4,2.5C343.8,613.9,342.9,614.1,341.9,614.7z"/>
	<path d="M485.5,220.7c1.2,0.6,2.1,1,3,1.4c1.4,2.8,2.1,5.3-0.1,7.8c-1.2,1.3-3.1,2-5,1.4c-1.5-0.4-2.1-1.5-2.2-3.8
		C481,224.4,482.9,222.6,485.5,220.7z M486.5,229.5c0.4-1.5,0.8-2.8,1-4.1c0.2-1.3-0.9-2.3-2-2.1c-1.5,0.2-2.5,2-2.4,4.1
		C483.2,229.2,483.6,229.5,486.5,229.5z"/>
	<g>
		<path d="M775.1,1163.8c-0.4-3.7-0.8-7.5-1.1-11.2c-0.3-3.8-0.4-7.7-0.8-11.5c-0.4-3.8-1.1-7.6-1.6-11.4c-0.5-3.8-1.9-7.5-1-11.6
			c1.6,0.7,1.6,2,1.8,3.1c1.1,7.5,2.2,15,3.1,22.6c0.5,3.7,0.4,7.5,0.8,11.2c0.6,5.3,1.5,10.5,2.4,16c-2.4-0.2-4.1-1.4-5.2-3.6
			c-1.1-2.1-1.9-4.3-3-6.4c-3.4-6.6-6.9-13.2-10.4-19.9c-0.2-0.3-0.4-0.7-0.6-1c-3.3-4.9-6.5-9.9-10.1-15.3c-0.2,1-0.5,1.7-0.4,2.2
			c1.2,4.1,1.3,8.3,0.9,12.7c-1.3-1.7-2-3.6-2.1-6c-0.1-1.6,0-3.3-0.1-4.9c-0.1-1.5-0.5-2.9-0.8-4.4c-0.2-0.8-0.5-1.7-0.4-2.5
			c0.1-1.5,1.6-2.1,2.7-1.2c0.7,0.6,1.5,1.4,1.8,2.3c1.3,3.7,3.7,6.8,5.9,9.8c3.6,4.7,6,10,8.9,15.1c2,3.5,4.1,6.9,6,10.3
			c0.8,1.5,1.3,3.2,2.1,4.7c0.2,0.4,0.5,0.7,0.8,1.1C774.8,1163.9,775,1163.9,775.1,1163.8z"/>
		<path d="M749.9,1143.1c0.3,3.1,0.6,6.2,0.8,9.4c0.3,3.2,0.5,6.4,0.8,9.6c0.3,3.1,0.7,6.3,1,9.4c-2,0.4-2-1.1-2.1-2.1
			c-0.5-3.1-0.9-6.1-1.1-9.2c-0.2-3.5,0-7-0.1-10.4c0-1.7-0.3-3.5-0.4-5.2c0-0.5,0.2-1,0.3-1.6
			C749.4,1143.1,749.7,1143.1,749.9,1143.1z"/>
	</g>
	<path d="M917.1,800.5c0.1,2.5-1.1,4.4-2.9,4.6c-1.9,0.1-3.7-1.9-3.7-4.3c0-2.2,1.5-3.9,3.6-3.8C916,796.9,917,798.2,917.1,800.5z"
		/>
	<g>
		<path d="M610.1,989.5c0.9,0,2,0.1,3.1,0c3.5-0.3,6.9-0.6,10.4-0.9c1-0.1,1.7,0.1,2.1,1.3c-0.6,0.4-1.2,1-1.8,1
			c-5.2,0.3-10.3,1.6-15.6,1c-1.6-2.4-1.8-5-2.1-7.6c-1.2-11.1-0.7-22.2-0.8-33.3c0-1.2-0.3-2.5-0.4-3.7c-0.1-0.7-0.2-1.5-0.2-2.2
			c0-0.5,0.2-0.9,0.5-2.2c0.5,1.2,0.8,1.6,0.9,2.1c0.3,1.8,0.4,3.7,0.8,5.5c0.7,3.7,1.1,7.4,0.2,11.1c1.4,1.4,2.8,1,4.2,0.4
			c1.3-0.6,2.7-1.3,4.4-0.1c-1.9,3.6-5.8,1.5-8.2,3C606.6,968.4,608.3,985.5,610.1,989.5z"/>
		<path d="M607.4,938.5c-0.4,1.3-0.7,2.4-1.1,3.7c-2.1-1.9-2.1-2.6-0.6-6.2c4.5,1.3,8.9-2,14.2-0.5
			C615.9,938.5,611.2,936.1,607.4,938.5z"/>
	</g>
	<g>
		<path d="M481.9,766.6c-1.2,2.2-2.6,3.7-5.1,3.1c-1.4-0.3-1.8-1.4-1.7-3.6c0.1-1.5,0.3-2.8,2-3
			C479.6,762.7,480.9,764.3,481.9,766.6z"/>
		<path d="M482.1,791.8c0.8,2,0.4,3.5-0.9,4.7c-1.6,1.5-3.9,1.1-4.3-1c-0.3-1.2-0.1-2.8,0.5-3.8c0.7-1.2,2.2-0.9,3.4-0.5
			C481.2,791.2,481.6,791.5,482.1,791.8z"/>
	</g>
	<path d="M626.6,415.9c-5.7,0.9-11,1.6-16.3,2.4c0-1.5,0.9-2.3,1.9-2.4c4.4-0.5,8.8-0.9,13.3-1.2C625.7,414.7,626,415.2,626.6,415.9
		z"/>
	<path d="M769.3,447.1c-2.9,0.2-4.2-0.4-4.5-1.8c-0.3-1.3,0.4-2.2,1.4-2.8c1.1-0.7,2.5-0.8,3.5,0.1
		C771.2,444.1,770.4,445.5,769.3,447.1z"/>
	<path d="M207.3,247.6c1.8-0.6,3.2-0.8,4.4,1c-0.8,0.6-1.6,1.1-2.4,1.6c-0.5,2.4,2.2,1.9,3,3c-1.3,1.6-2.1,1.8-3.1,0.7
		C207.6,252.2,206.6,250.3,207.3,247.6z"/>
	<g>
		<path d="M762.9,783.7c1-0.3,1.9-0.8,2.9-1c2.9-0.4,7.7-0.1,9.7,0.7c-0.5,0.5-0.9,1.1-1.4,1.1c-2.9,0.2-5.9,0.2-8.8,0.3
			c-0.7,0-1.4-0.1-2.2-0.2C763.1,784.3,763,784,762.9,783.7z"/>
		<path d="M762.5,777.8c3.8-1.3,7-2,10.3-2.3c0.5,0,1,0.5,1.6,0.8C770.7,778.7,766.1,779.4,762.5,777.8z"/>
	</g>
	<path d="M493.7,435.2c2,0,2.3,1.2,2.4,2.6c0.2,2.9-1.1,5.2-4,6.7c-0.4-1.9,1.1-3.2,1.5-4.7C493.9,438.4,493.7,436.8,493.7,435.2z"
		/>
	<path d="M775.5,203.3c2.8,1.3,2.9,4.1,3.6,6.5c0.6,2.2-1.1,3.8-2.6,5.4C777.2,211.1,778.3,207.1,775.5,203.3z"/>
	<g>
		<path d="M621.5,772.6c-3.7-2.9-4-4.5-1.3-7c1.3,1.1,2.7,2.3,4.3,3.7C623.4,770.5,622.6,771.4,621.5,772.6z"/>
		<path d="M624.4,785.7c2,2.6,2.8,5.2,1.2,8c-0.5,1-1.3,1.5-2.7,0.6C625.2,791.8,623.9,788.6,624.4,785.7z"/>
	</g>
	<g>
		<path d="M349.9,213.6c-0.6,0.4-1.2,0.8-2.1,1.4c-0.2-0.8-0.4-1.3-0.4-1.7c0.1-2.7-0.3-5.1-2.3-7.1c-0.4-0.4-0.3-1.4-0.6-2.9
			C348.9,206,349.5,209.7,349.9,213.6z"/>
		<path d="M351.6,214.6c0.4-2.2,1.2-4,0.9-5.7c-0.3-1.7-1.6-3.2-2.6-5.1c2-0.3,2.7,1.1,3.3,2.3c1.4,2.6,0.3,5.3-0.2,7.9
			C353,214.3,352.3,214.3,351.6,214.6z"/>
	</g>
</g>
<g>
	<path d="M1806.2,1514.1c1.1-0.7,2.1-1.4,3.4-2.2c0.2-2.3,0.3-4.6,0.5-7.1c1.1,0,2,0,2.8,0c0.3,0.4,0.4,0.6,0.5,0.9
		c0.1,0.2,0.1,0.5,0.1,0.7c0.9,7.8-5.6,11.1-11.7,10c-3.8-0.7-7-2.3-8.6-6.3c-0.8-2.1-1-4-0.1-6.2c1.9,0.8,3.1,2.1,3.4,3.8
		c0.5,3,2.7,4.1,5,5.1C1803,1513.6,1804.6,1513.8,1806.2,1514.1z"/>
	<path d="M1796.1,1497.3c2.6-0.9,3.5-0.3,5.8,3.4c-0.4,0.3-0.9,1-1.3,0.9C1798.5,1501.1,1797.2,1499.5,1796.1,1497.3z"/>
</g>
<g>
	<path d="M1523,1326.4c-0.9,2.1-2.5,1.6-3.8,1.8c-1.3,0.3-2.6,0.6-4,0.9c-0.7,1.9-0.4,3.3,0.9,4.9c2,0,4.1-0.1,6.1,0
		c1.9,0.2,3.8-1.3,6.2,0.1c-1,0.6-1.5,1.2-2.1,1.2c-4.7,0.6-9.4,0.4-14.3,0.2c-0.1-2.5-0.3-4.6-0.4-6.4c-0.8-1.4-3.2,0.6-3.3-2
		c0.5-0.1,1.1-0.3,1.6-0.5c0.6-0.2,1.2-0.3,1.8-0.4c1.1-1.6,0.7-3.2,0.4-4.8c-0.6-3.4,0.2-4.3,3.5-4.6c1.6-0.2,3.2-0.5,4.8-0.6
		c2.3-0.2,4.7-0.6,6.9,2c-4.3,0.4-8.3-0.7-12.2,1.4c0,2,0,4.2,0,6.3C1517.6,1327.7,1520.3,1325.2,1523,1326.4z"/>
	<path d="M1526.8,1306.5c-2.4,2.4-5.5,2.6-7.8,4.2c-0.2,0.1-0.6-0.2-1.2-0.5c1.8-2.5,4.6-3,7-4.2
		C1525.2,1305.9,1525.8,1306.3,1526.8,1306.5z"/>
</g>
<path d="M2106.9,244c-3.1-2-5.1-4.9-8.4-6.2c-2,2.1-0.3,4.4-0.3,6.4c-0.1,2.1,0.7,4.3,1.2,6.8c-0.3,0.2-0.8,0.6-1.6,1.2
	c-0.5-0.9-1.3-1.6-1.3-2.3c0.2-3.5-0.6-6.9-1-10.3c-0.2-1.7-1.1-4,0.9-5.1c2-1.1,3.4,0.8,4.8,2c1.7,1.6,3.4,3.2,5.4,5.1
	c2-2.6,3.7-4.9,5.6-7.4c1.1,0,2.1,0,3.5,0c2.2,5.5,1.9,11.5,3.7,16.9c-1.3,1.3-2.1,0.9-2.3-0.4c-0.8-4.1-1.5-8.3-2.3-12.5
	c-0.1-0.5-0.2-0.9-0.4-1.9c-0.9,0.3-1.8,0.4-2.3,0.9c-0.9,1-1.6,2.2-2.4,3.3C2108.9,241.7,2107.9,242.8,2106.9,244z"/>
<g>
	<path d="M1799.2,755.9c-2.9-0.1-2.9-2-3.9-3c-1-1-1.9-2-2.9-2.9c-1.1-0.9-3-0.8-2.9-3.1c0.5-0.1,1.2-0.4,1.5-0.2
		C1794.1,749.1,1796.8,751.9,1799.2,755.9z"/>
	<path d="M1796.8,796.2c-0.2,6.9-2.6,12.7-4.5,19.3c-1-0.8-1.7-1.4-2.2-1.9c2.1-6.1,3.7-11.9,4.4-18c0.2-1.3,1.1-2.5,1.4-3.8
		c1.5-5.9,3.3-11.7,3.7-17.9c0-0.6,0-1.4,0.3-1.8c1-1.5,1.2-3.2,1.2-5c0.1-1.5,0.8-2.3,2.6-1.9c4.1,15.9,7.6,31.9,12.3,47.6
		c0.2,0.5-0.1,1.2-0.1,1.6c-1.1,0.8-1.9,0.5-2.3-0.4c-0.3-0.5-0.3-1.2-0.5-1.8c-1.3-4.8-2.5-9.6-3.9-14.4c-0.3-0.9-1.4-2-2.3-2.1
		C1803.7,795.4,1800.5,795.3,1796.8,796.2z M1802.1,773.1c-0.3,1.8-0.8,3.4-1,5.2c-0.2,1.7-0.5,3.3-1,5c-0.9,2.8-2,5.9-0.7,9.2
		c2.7-0.5,5.3,1.5,7.9,0.3C1806.7,783.9,1804.5,775.8,1802.1,773.1z"/>
</g>
<path d="M2083.4,1134.8c1.3,1.1,2.5,1.8,3.2,2.8c3.4,4.9,6.6,9.9,9.9,14.7c-0.7,1.7-1.8,2.1-3,1c-0.9-0.8-1.7-1.8-2.1-2.9
	c-0.8-1.8-2.2-2.9-4-3c-3.1-0.1-6.2,0-9.3,0.4c-2.3,0.3-4.5,1.2-6.1,3.2c-1.2,1.4-1.4,1.3-4,0.8c2.7-2.8,5.2-5.4,7.6-8.1
	C2078.2,1141,2080.5,1138.2,2083.4,1134.8z M2078.4,1144.2c2.9,0.7,5.6,1.1,8.2,0.3c-0.5-3.1-0.5-3.1-3.1-5
	C2081.8,1141.1,2080.1,1142.6,2078.4,1144.2z"/>
<g>
	<path d="M1950.9,1135.2c-2.9-0.1-2.9-2-3.9-3c-1-1-1.8-2-2.9-2.9c-1.1-0.9-3-0.8-2.9-3.1c0.5-0.1,1.2-0.4,1.5-0.2
		C1945.9,1128.4,1948.5,1131.2,1950.9,1135.2z"/>
	<path d="M1947,1140.1c1.3,1.1,2.5,1.8,3.2,2.8c3.4,4.9,6.6,9.9,9.9,14.7c-0.7,1.7-1.8,2.1-3,1c-0.9-0.8-1.7-1.8-2.1-2.9
		c-0.8-1.8-2.2-2.9-4-3c-3.1-0.1-6.2,0-9.3,0.4c-2.3,0.3-4.5,1.2-6.1,3.2c-1.2,1.4-1.4,1.3-4,0.8c2.7-2.8,5.2-5.4,7.6-8.1
		C1941.8,1146.4,1944.2,1143.5,1947,1140.1z M1942.1,1149.5c2.9,0.7,5.6,1.1,8.2,0.3c-0.5-3.1-0.5-3.1-3.1-5
		C1945.5,1146.4,1943.8,1147.9,1942.1,1149.5z"/>
</g>
<path d="M2091.6,1124c-2.4,2.9-4.5,5.4-6.7,8c-1.7-1.1-1.4-2.1-0.6-3.3c1-1.5,2-3.1,3-4.9C2088.9,1123.2,2088.9,1123.2,2091.6,1124z
	"/>
<g>
	<path d="M1378.9,957.9c2.2,0.5,2.2,0.5,3.6,2.3c-1.4,0.6-2.7,1.1-4.1,1.7c-0.2,4.6,0.4,9,1,13.5c2.6,0.3,4.5-1.9,6.9-0.4
		c-0.2,0.5-0.3,1.3-0.6,1.4c-2.8,1-5.6,1.8-9,0.7c-0.2-1.3-0.7-2.6-0.7-3.9c-0.1-5.1-0.5-10.1-0.2-15.2c0.2-3.2,0.5-6.4,0.6-9.7
		c0-1-0.3-2-0.3-3c-0.1-1.3,0-2.6,0-4.1c3.6-0.8,6.9-1.5,11-2.4c-0.1,0,0.6,0.4,1.5,0.9c-0.5,0.6-0.8,1.1-1.1,1.2
		c-2.6,0.8-5.2,1.5-8,2.3c-1.1,2.4-0.5,4.9-0.6,7.3C1378.8,952.9,1378.9,955.3,1378.9,957.9z"/>
	<path d="M1386.1,929.5c-2.4,2.9-4.5,5.4-6.7,8c-1.7-1.1-1.4-2.1-0.6-3.3c1-1.5,2-3.1,3-4.9C1383.4,928.7,1383.4,928.7,1386.1,929.5
		z"/>
</g>
<path d="M1796.5,942.4c0.5-0.4,1-1.1,1.4-1.1c3.2-0.2,6.4-0.4,9.6-0.5c0.5,0,1.1,0.5,1.7,0.9c-2.1,1.6-2.1,1.6-4.3,2.2
	c-0.1,0.7-0.3,1.6-0.3,2.4c0,6.9-0.1,13.7,0,20.6c0,2,0.5,3.9,0.7,5.7c1.5,0.9,3.5-0.9,4.2,1.6c-0.7,1.2-2.1,1.5-3.5,1.4
	c-2.9-0.2-5.9,0.7-8.7-0.8c0.9-2.3,3.2-0.9,4.2-2.2c0-9.3,0-18.6,0-27.6C1800.1,943.5,1797.7,944.9,1796.5,942.4z"/>
<path d="M1805.9,932.4c-2.4,2.9-4.5,5.4-6.7,8c-1.7-1.1-1.4-2.1-0.6-3.3c1-1.5,2-3.1,3-4.9C1803.2,931.6,1803.2,931.6,1805.9,932.4z
	"/>
<path d="M1675.8,1488.7c0.1-2.3-1-4.4,1.1-6.2c0.4,0.4,1.1,0.8,1.2,1.4c0.2,0.8,0.1,1.7,0.1,2.6c0.1,1.6,0.5,2.8,2.1,3.6
	c1,0.5,1.8,1.5,2.9,2.4c-2,1-3.3,0.2-4.7-0.3c-3.8-1.4-5.4-0.2-5.4,4.4c0.6,0.4,1.2,1.2,2,1.3c3.4,0.6,5.8,2.8,8.3,4.8
	c1.6,1.3,2.8,3.6,3.2,5.6c1,4.2,1.2,8.5-2.7,11.7c-0.3,0.2-0.5,0.5-0.8,0.8c-2.7,2.7-2.8,3-2.4,6.9c-2.4,0.6-3-0.2-3.3-4.3
	c-4.1-1.5-7-4.1-8-8.6c-0.5-2.3-0.6-2.3,1-4.3c1.3,0.2,1.6,1,1.4,2.2c-0.4,3.6,1.4,5.9,4.2,7.6c1.7,1,3.9,0.7,5.1-0.7
	c1.7-1.9,2.9-3.9,2.9-6.6c-0.1-6.2-2.6-9.9-8.5-12.1c-1.3-0.5-2.7-1.2-3.7-2.2c-2.9-2.9-2.1-7.1,1.5-9
	C1674.2,1489.1,1674.9,1489,1675.8,1488.7z"/>
<path d="M1376.5,1508.3c0.3-1.3,0.5-2.7,0.9-4c0.9-3.1,2.8-5.2,6.3-5.5c2.9-0.2,5.9-0.8,8.5,1.3c3.6,2.8,5.3,9.3,3.6,13.6
	c-1.3,3.1-2.8,6-6.4,7.4c-3.5,1.3-6.1,0.1-8.4-2.2C1378.7,1516.7,1376.7,1511.4,1376.5,1508.3z M1383.1,1501.1
	c-1.9,1.3-3.2,3.3-3.3,6c-0.2,3.6,0.8,6.7,3.3,9.6c3,3.5,6.1,3.3,8.6-0.5c2-3.1,2-6.3,1.2-9.6c-0.9-3.5-2.1-4.6-5.5-5
	C1386,1501.4,1384.7,1501.3,1383.1,1501.1z"/>
<path d="M1397,1491.1c-2.4,2.4-5.5,2.6-7.8,4.2c-0.2,0.1-0.6-0.2-1.2-0.5c1.8-2.5,4.6-3,7-4.2
	C1395.4,1490.4,1396,1490.8,1397,1491.1z"/>
<g>
	<path d="M1682.8,1326.8c-0.9,2.1-2.5,1.6-3.8,1.8c-1.3,0.3-2.6,0.6-4,0.9c-0.7,1.9-0.4,3.3,0.9,4.9c2,0,4.1-0.1,6.1,0
		c1.9,0.2,3.8-1.3,6.2,0.1c-1,0.6-1.5,1.2-2.1,1.2c-4.7,0.6-9.4,0.4-14.3,0.2c-0.1-2.5-0.3-4.6-0.4-6.4c-0.8-1.4-3.2,0.6-3.3-2
		c0.5-0.1,1.1-0.3,1.6-0.5c0.6-0.2,1.2-0.3,1.8-0.4c1.1-1.6,0.7-3.2,0.4-4.8c-0.6-3.4,0.2-4.3,3.5-4.6c1.6-0.2,3.2-0.5,4.8-0.6
		c2.3-0.2,4.7-0.6,6.9,2c-4.3,0.4-8.3-0.7-12.2,1.4c0,2,0,4.2,0,6.3C1677.5,1328.1,1680.1,1325.6,1682.8,1326.8z"/>
	<path d="M1678.2,1308.2c-1.3,1.6-2.2,2.8-3.1,3.8c-1.1,1.2-2.2,1.5-3.4-0.1c1.7-2.1,3.4-4.2,5.2-6.4c3.6,0.1,6.1,2.1,8.2,4.8
		c-1.3,1.9-2.4,1.4-3.6,0.5C1680.5,1310.1,1679.6,1309.3,1678.2,1308.2z"/>
</g>
<g>
	<path d="M2367.2,1323.8c0.3-1.3,0.5-2.7,0.9-4c0.9-3.1,2.8-5.2,6.3-5.5c2.9-0.2,5.9-0.8,8.5,1.3c3.6,2.8,5.3,9.3,3.6,13.6
		c-1.3,3.1-2.8,6-6.4,7.4c-3.5,1.3-6.1,0.1-8.4-2.2C2369.5,1332.2,2367.4,1326.9,2367.2,1323.8z M2373.8,1316.6
		c-1.9,1.3-3.2,3.3-3.3,6c-0.2,3.6,0.8,6.7,3.3,9.6c3,3.5,6.1,3.3,8.6-0.5c2-3.1,2-6.3,1.2-9.6c-0.9-3.5-2.1-4.6-5.5-5
		C2376.7,1317,2375.4,1316.8,2373.8,1316.6z"/>
	<path d="M2369.5,1304.6c3.6,0.6,4,0.8,7,3.9c-0.4,1.4-1.3,2.1-2.7,1.3c-1.4-0.9-2.7-2-4-3.2
		C2369.5,1306.3,2369.6,1305.5,2369.5,1304.6z"/>
</g>
<path d="M1527.1,1145.7c-2.5-0.8-4.7,1.5-7.7-0.3c2.7-0.9,4.9-1.7,7.2-2.5c-0.1-1.3-0.1-2.4-0.2-4c-1.7,0.1-3.4,0.2-5.3,0.3
	c0.6-2.8,3-1.7,4.2-2.7c1.9-1.1-0.4-4.6,3.2-5.1c0.3,1.1,0.7,2.2,1.1,3.6c0.7-0.2,1.5-0.4,2-0.5c1.3-1.3,0-3.3,2-4.3
	c0.3,0.5,0.7,0.9,0.9,1.4c0.2,0.4,0.4,0.9,0.5,1.2c2.1,0.2,3.8-1.8,6-0.6c-0.9,2.8-4,2.3-5.6,3.9c0,1.3,0,2.7,0,4.4
	c1.2-0.2,2.1-0.4,3-0.5c0.8,0,1.6,0.1,2.6,0.2c-0.9,3.2-4.7,1.4-5.7,4.3c0.1,0.9,0.3,2.1,0.5,3.9c-1-0.5-1.8-0.7-2-1.1
	c-0.3-0.9-0.3-1.9-0.5-3c-1.7-1-2.9-0.1-4.2,0.7c-0.2,1.1-0.4,2.1-0.6,3.1C1526.4,1148.3,1527.3,1146.8,1527.1,1145.7z
	 M1529.8,1142.6c1.2-0.5,2.1-0.9,3-1.3c0.1-1.7,0.6-3.2-0.7-4.4C1528.8,1138.1,1528.5,1138.8,1529.8,1142.6z"/>
<g>
	<path d="M1964.2,1506.9c0.2,0.5,0.4,0.9,0.5,1.4c0.7,3.8,0.3,7.5-1.2,11c-1.3,2.8-5.6,4.6-8.7,3.7c-2.9-0.8-5.3-2.2-6.2-5.3
		c-0.6-1.9-1.4-3.7-2-5.6c-0.3-1.1-0.7-2.4,0.8-3.2c1.5,0.6,1.4,2,1.8,3.2c0.5,1.5,1,3.1,1.4,4.6c0.3,1.3,1.1,2.1,2.1,2.9
		c1.9,1.4,3.9,2.3,6.2,1c2.2-1.2,3.5-3.1,3.8-5.6c0.1-1.7,0-3.5,0.1-5.2c0-0.8,0.3-1.6,0.5-2.3
		C1963.7,1507.2,1963.9,1507,1964.2,1506.9z"/>
	<path d="M1964.8,1497.7c-2.4,2.9-4.5,5.4-6.7,8c-1.7-1.1-1.4-2.1-0.6-3.3c1-1.5,2-3.1,3-4.9
		C1962.1,1496.9,1962.1,1496.9,1964.8,1497.7z"/>
</g>
<path d="M1958.8,1307.8c0.9,0.5,1.9,1,2.8,1.6c-0.2,1.9-1.8,1.6-2.9,2c-0.3,1.6,1.8,3,0.3,4.5c-1.6-0.7-1.6-0.7-3-2.9
	c-0.6,0.8-1.3,1.5-1.9,2.2c-1.7-1.6,0.8-2.7,0.3-4c-1.2-1.4-3.7,0.3-4.7-2.2c0.7-0.4,1.6-0.6,2.1-1.1c0.4-0.4,0.5-1.2,0.9-2.1
	c0.9,0.4,1.7,0.7,2.5,1c0.9-0.7,1.8-1.5,3.1-2.6C1958.5,1305.7,1958.6,1306.6,1958.8,1307.8z"/>
</svg>
